<svg width="480" height="1024" viewBox="0 0 480 1024" fill="none" xmlns="http://www.w3.org/2000/svg">
<g id="Frame 37" clip-path="url(#clip0_93_832)">
<rect width="480" height="1024" fill="#000421"/>
<g id="fumaca" filter="url(#filter0_f_93_832)">
<rect x="135" y="440" width="234" height="143" fill="#0076C0"/>
</g>
<path id="Ellipse 5" d="M395.412 587.132C336.2 647.604 239.177 648.625 178.705 589.412C118.234 530.2 117.213 433.177 176.425 372.705C235.638 312.234 332.661 311.213 393.132 370.426C453.604 429.638 454.624 526.661 395.412 587.132Z" stroke="url(#paint0_linear_93_832)" stroke-width="0.3"/>
<g id="Ellipse 20" filter="url(#filter1_dd_93_832)">
<path d="M385 511.5C385 591.857 319.857 657 239.5 657C159.143 657 94 591.857 94 511.5C94 431.143 159.143 366 239.5 366C319.857 366 385 431.143 385 511.5Z" fill="url(#paint1_linear_93_832)" shape-rendering="crispEdges"/>
</g>
<g id="fumaca_2" filter="url(#filter2_f_93_832)">
<rect x="73" y="393" width="213" height="130" fill="#0076C0"/>
</g>
<g id="Ellipse 9" filter="url(#filter3_di_93_832)">
<circle cx="124" cy="638" r="11" fill="url(#paint2_linear_93_832)"/>
</g>
<g id="Rectangle 39" filter="url(#filter4_f_93_832)">
<rect x="161" y="648" width="8" height="8" fill="#0076C0"/>
</g>
<g id="Rectangle 40" filter="url(#filter5_f_93_832)">
<path d="M80 560H88V568H80V560Z" fill="#0076C0"/>
</g>
<path id="Ellipse 22" d="M166 652C166 652.552 165.552 653 165 653C164.448 653 164 652.552 164 652C164 651.448 164.448 651 165 651C165.552 651 166 651.448 166 652Z" fill="#D9D9D9"/>
<path id="Ellipse 23" d="M85 564C85 564.552 84.5523 565 84 565C83.4477 565 83 564.552 83 564C83 563.448 83.4477 563 84 563C84.5523 563 85 563.448 85 564Z" fill="#D9D9D9"/>
<g id="Rectangle 39_2" filter="url(#filter6_f_93_832)">
<rect x="425" y="315" width="8" height="8" fill="#0076C0"/>
</g>
<path id="Ellipse 21" d="M430 319C430 319.552 429.552 320 429 320C428.448 320 428 319.552 428 319C428 318.448 428.448 318 429 318C429.552 318 430 318.448 430 319Z" fill="#D9D9D9"/>
<g id="Ellipse 24" filter="url(#filter7_di_93_832)">
<path d="M400 370.5C400 374.09 397.09 377 393.5 377C389.91 377 387 374.09 387 370.5C387 366.91 389.91 364 393.5 364C397.09 364 400 366.91 400 370.5Z" fill="#004279"/>
</g>
<g id="Rectangle 35" filter="url(#filter8_f_93_832)">
<rect x="189" y="553" width="180" height="110" fill="#0076C0"/>
</g>
</g>
<defs>
<filter id="filter0_f_93_832" x="-65" y="240" width="634" height="543" filterUnits="userSpaceOnUse" color-interpolation-filters="sRGB">
<feFlood flood-opacity="0" result="BackgroundImageFix"/>
<feBlend mode="normal" in="SourceGraphic" in2="BackgroundImageFix" result="shape"/>
<feGaussianBlur stdDeviation="100" result="effect1_foregroundBlur_93_832"/>
</filter>
<filter id="filter1_dd_93_832" x="90" y="366" width="299" height="299" filterUnits="userSpaceOnUse" color-interpolation-filters="sRGB">
<feFlood flood-opacity="0" result="BackgroundImageFix"/>
<feColorMatrix in="SourceAlpha" type="matrix" values="0 0 0 0 0 0 0 0 0 0 0 0 0 0 0 0 0 0 127 0" result="hardAlpha"/>
<feOffset dy="4"/>
<feGaussianBlur stdDeviation="2"/>
<feComposite in2="hardAlpha" operator="out"/>
<feColorMatrix type="matrix" values="0 0 0 0 0 0 0 0 0 0 0 0 0 0 0 0 0 0 0.25 0"/>
<feBlend mode="normal" in2="BackgroundImageFix" result="effect1_dropShadow_93_832"/>
<feColorMatrix in="SourceAlpha" type="matrix" values="0 0 0 0 0 0 0 0 0 0 0 0 0 0 0 0 0 0 127 0" result="hardAlpha"/>
<feOffset dy="4"/>
<feGaussianBlur stdDeviation="2"/>
<feComposite in2="hardAlpha" operator="out"/>
<feColorMatrix type="matrix" values="0 0 0 0 0 0 0 0 0 0 0 0 0 0 0 0 0 0 0.25 0"/>
<feBlend mode="normal" in2="effect1_dropShadow_93_832" result="effect2_dropShadow_93_832"/>
<feBlend mode="normal" in="SourceGraphic" in2="effect2_dropShadow_93_832" result="shape"/>
</filter>
<filter id="filter2_f_93_832" x="-127" y="193" width="613" height="530" filterUnits="userSpaceOnUse" color-interpolation-filters="sRGB">
<feFlood flood-opacity="0" result="BackgroundImageFix"/>
<feBlend mode="normal" in="SourceGraphic" in2="BackgroundImageFix" result="shape"/>
<feGaussianBlur stdDeviation="100" result="effect1_foregroundBlur_93_832"/>
</filter>
<filter id="filter3_di_93_832" x="109" y="627" width="30" height="30" filterUnits="userSpaceOnUse" color-interpolation-filters="sRGB">
<feFlood flood-opacity="0" result="BackgroundImageFix"/>
<feColorMatrix in="SourceAlpha" type="matrix" values="0 0 0 0 0 0 0 0 0 0 0 0 0 0 0 0 0 0 127 0" result="hardAlpha"/>
<feOffset dy="4"/>
<feGaussianBlur stdDeviation="2"/>
<feComposite in2="hardAlpha" operator="out"/>
<feColorMatrix type="matrix" values="0 0 0 0 0 0 0 0 0 0 0 0 0 0 0 0 0 0 0.25 0"/>
<feBlend mode="normal" in2="BackgroundImageFix" result="effect1_dropShadow_93_832"/>
<feBlend mode="normal" in="SourceGraphic" in2="effect1_dropShadow_93_832" result="shape"/>
<feColorMatrix in="SourceAlpha" type="matrix" values="0 0 0 0 0 0 0 0 0 0 0 0 0 0 0 0 0 0 127 0" result="hardAlpha"/>
<feOffset dy="4"/>
<feGaussianBlur stdDeviation="2"/>
<feComposite in2="hardAlpha" operator="arithmetic" k2="-1" k3="1"/>
<feColorMatrix type="matrix" values="0 0 0 0 0 0 0 0 0 0 0 0 0 0 0 0 0 0 0.25 0"/>
<feBlend mode="normal" in2="shape" result="effect2_innerShadow_93_832"/>
</filter>
<filter id="filter4_f_93_832" x="151" y="638" width="28" height="28" filterUnits="userSpaceOnUse" color-interpolation-filters="sRGB">
<feFlood flood-opacity="0" result="BackgroundImageFix"/>
<feBlend mode="normal" in="SourceGraphic" in2="BackgroundImageFix" result="shape"/>
<feGaussianBlur stdDeviation="5" result="effect1_foregroundBlur_93_832"/>
</filter>
<filter id="filter5_f_93_832" x="70" y="550" width="28" height="28" filterUnits="userSpaceOnUse" color-interpolation-filters="sRGB">
<feFlood flood-opacity="0" result="BackgroundImageFix"/>
<feBlend mode="normal" in="SourceGraphic" in2="BackgroundImageFix" result="shape"/>
<feGaussianBlur stdDeviation="5" result="effect1_foregroundBlur_93_832"/>
</filter>
<filter id="filter6_f_93_832" x="415" y="305" width="28" height="28" filterUnits="userSpaceOnUse" color-interpolation-filters="sRGB">
<feFlood flood-opacity="0" result="BackgroundImageFix"/>
<feBlend mode="normal" in="SourceGraphic" in2="BackgroundImageFix" result="shape"/>
<feGaussianBlur stdDeviation="5" result="effect1_foregroundBlur_93_832"/>
</filter>
<filter id="filter7_di_93_832" x="383" y="364" width="21" height="21" filterUnits="userSpaceOnUse" color-interpolation-filters="sRGB">
<feFlood flood-opacity="0" result="BackgroundImageFix"/>
<feColorMatrix in="SourceAlpha" type="matrix" values="0 0 0 0 0 0 0 0 0 0 0 0 0 0 0 0 0 0 127 0" result="hardAlpha"/>
<feOffset dy="4"/>
<feGaussianBlur stdDeviation="2"/>
<feComposite in2="hardAlpha" operator="out"/>
<feColorMatrix type="matrix" values="0 0 0 0 0 0 0 0 0 0 0 0 0 0 0 0 0 0 0.25 0"/>
<feBlend mode="normal" in2="BackgroundImageFix" result="effect1_dropShadow_93_832"/>
<feBlend mode="normal" in="SourceGraphic" in2="effect1_dropShadow_93_832" result="shape"/>
<feColorMatrix in="SourceAlpha" type="matrix" values="0 0 0 0 0 0 0 0 0 0 0 0 0 0 0 0 0 0 127 0" result="hardAlpha"/>
<feOffset dy="4"/>
<feGaussianBlur stdDeviation="2"/>
<feComposite in2="hardAlpha" operator="arithmetic" k2="-1" k3="1"/>
<feColorMatrix type="matrix" values="0 0 0 0 0 0 0 0 0 0 0 0 0 0 0 0 0 0 0.25 0"/>
<feBlend mode="normal" in2="shape" result="effect2_innerShadow_93_832"/>
</filter>
<filter id="filter8_f_93_832" x="-11" y="353" width="580" height="510" filterUnits="userSpaceOnUse" color-interpolation-filters="sRGB">
<feFlood flood-opacity="0" result="BackgroundImageFix"/>
<feBlend mode="normal" in="SourceGraphic" in2="BackgroundImageFix" result="shape"/>
<feGaussianBlur stdDeviation="100" result="effect1_foregroundBlur_93_832"/>
</filter>
<linearGradient id="paint0_linear_93_832" x1="372.004" y1="397.497" x2="157.367" y2="616.698" gradientUnits="userSpaceOnUse">
<stop stop-color="#D9DADE"/>
<stop offset="1" stop-color="#D9DADE" stop-opacity="0"/>
</linearGradient>
<linearGradient id="paint1_linear_93_832" x1="239.5" y1="366" x2="239.5" y2="657" gradientUnits="userSpaceOnUse">
<stop offset="0.9999" stop-color="#000103"/>
<stop offset="1" stop-color="#000103" stop-opacity="0"/>
</linearGradient>
<linearGradient id="paint2_linear_93_832" x1="124" y1="627" x2="124" y2="649" gradientUnits="userSpaceOnUse">
<stop stop-color="#002442"/>
<stop offset="1" stop-color="#004B81"/>
</linearGradient>
<clipPath id="clip0_93_832">
<rect width="480" height="1024" fill="white"/>
</clipPath>
</defs>
</svg>
