<svg width="480" height="1024" viewBox="0 0 480 1024" fill="none" xmlns="http://www.w3.org/2000/svg">
<g id="Frame 37" clip-path="url(#clip0_93_832)">
<rect width="480" height="1024" fill="#000421"/>
<g id="fumaca" filter="url(#filter0_f_93_832)">
<rect x="240" y="338" width="233" height="142" fill="#0076C0"/>
</g>
<g id="fumaca_2" filter="url(#filter1_f_93_832)">
<rect x="135" y="440" width="234" height="143" fill="#0076C0"/>
</g>
<path id="Ellipse 5" d="M395.412 587.132C336.2 647.604 239.177 648.625 178.705 589.412C118.234 530.2 117.213 433.177 176.425 372.705C235.638 312.234 332.661 311.213 393.132 370.426C453.604 429.638 454.624 526.661 395.412 587.132Z" stroke="url(#paint0_linear_93_832)" stroke-width="0.3"/>
<g id="Ellipse 20" filter="url(#filter2_dd_93_832)">
<path d="M385 511.5C385 591.857 319.857 657 239.5 657C159.143 657 94 591.857 94 511.5C94 431.143 159.143 366 239.5 366C319.857 366 385 431.143 385 511.5Z" fill="url(#paint1_linear_93_832)" shape-rendering="crispEdges"/>
</g>
<g id="fumaca_3" filter="url(#filter3_f_93_832)">
<rect x="40" y="353" width="233" height="142" fill="#0076C0"/>
</g>
<g id="fumaca_4" filter="url(#filter4_f_93_832)">
<rect x="69" y="385" width="156" height="95" fill="#0076C0"/>
</g>
<g id="fumaca_5" filter="url(#filter5_f_93_832)">
<rect x="262" y="558" width="156" height="95" fill="#0076C0"/>
</g>
<g id="Ellipse 9" filter="url(#filter6_di_93_832)">
<circle cx="105" cy="617" r="11" fill="url(#paint2_linear_93_832)"/>
</g>
<g id="Rectangle 41" filter="url(#filter7_f_93_832)">
<rect x="308" y="369" width="8" height="8" fill="#0076C0"/>
</g>
<path id="Ellipse 25" d="M313 373C313 373.552 312.552 374 312 374C311.448 374 311 373.552 311 373C311 372.448 311.448 372 312 372C312.552 372 313 372.448 313 373Z" fill="#D9D9D9"/>
<g id="Rectangle 39" filter="url(#filter8_f_93_832)">
<rect x="425" y="315" width="8" height="8" fill="#0076C0"/>
</g>
<path id="Ellipse 21" d="M430 319C430 319.552 429.552 320 429 320C428.448 320 428 319.552 428 319C428 318.448 428.448 318 429 318C429.552 318 430 318.448 430 319Z" fill="#D9D9D9"/>
<g id="Ellipse 24" filter="url(#filter9_di_93_832)">
<path d="M400 370.5C400 374.09 397.09 377 393.5 377C389.91 377 387 374.09 387 370.5C387 366.91 389.91 364 393.5 364C397.09 364 400 366.91 400 370.5Z" fill="#004279"/>
</g>
<g id="piscar">
<g id="Rectangle 31" filter="url(#filter10_f_93_832)">
<rect x="155" y="647" width="8" height="8" fill="#0076C0"/>
</g>
<g id="Rectangle 32" filter="url(#filter11_f_93_832)">
<rect x="155" y="647" width="8" height="8" fill="#0076C0"/>
</g>
<path id="Ellipse 15" d="M160 651C160 651.552 159.552 652 159 652C158.448 652 158 651.552 158 651C158 650.448 158.448 650 159 650C159.552 650 160 650.448 160 651Z" fill="#D9D9D9"/>
</g>
<g id="piscar_2">
<g id="Rectangle 31_2" filter="url(#filter12_f_93_832)">
<rect x="85" y="564" width="8" height="8" fill="#0076C0"/>
</g>
<g id="Rectangle 32_2" filter="url(#filter13_f_93_832)">
<rect x="85" y="564" width="8" height="8" fill="#0076C0"/>
</g>
<path id="Ellipse 15_2" d="M90 568C90 568.552 89.5523 569 89 569C88.4477 569 88 568.552 88 568C88 567.448 88.4477 567 89 567C89.5523 567 90 567.448 90 568Z" fill="#D9D9D9"/>
</g>
</g>
<defs>
<filter id="filter0_f_93_832" x="40" y="138" width="633" height="542" filterUnits="userSpaceOnUse" color-interpolation-filters="sRGB">
<feFlood flood-opacity="0" result="BackgroundImageFix"/>
<feBlend mode="normal" in="SourceGraphic" in2="BackgroundImageFix" result="shape"/>
<feGaussianBlur stdDeviation="100" result="effect1_foregroundBlur_93_832"/>
</filter>
<filter id="filter1_f_93_832" x="-65" y="240" width="634" height="543" filterUnits="userSpaceOnUse" color-interpolation-filters="sRGB">
<feFlood flood-opacity="0" result="BackgroundImageFix"/>
<feBlend mode="normal" in="SourceGraphic" in2="BackgroundImageFix" result="shape"/>
<feGaussianBlur stdDeviation="100" result="effect1_foregroundBlur_93_832"/>
</filter>
<filter id="filter2_dd_93_832" x="90" y="366" width="299" height="299" filterUnits="userSpaceOnUse" color-interpolation-filters="sRGB">
<feFlood flood-opacity="0" result="BackgroundImageFix"/>
<feColorMatrix in="SourceAlpha" type="matrix" values="0 0 0 0 0 0 0 0 0 0 0 0 0 0 0 0 0 0 127 0" result="hardAlpha"/>
<feOffset dy="4"/>
<feGaussianBlur stdDeviation="2"/>
<feComposite in2="hardAlpha" operator="out"/>
<feColorMatrix type="matrix" values="0 0 0 0 0 0 0 0 0 0 0 0 0 0 0 0 0 0 0.25 0"/>
<feBlend mode="normal" in2="BackgroundImageFix" result="effect1_dropShadow_93_832"/>
<feColorMatrix in="SourceAlpha" type="matrix" values="0 0 0 0 0 0 0 0 0 0 0 0 0 0 0 0 0 0 127 0" result="hardAlpha"/>
<feOffset dy="4"/>
<feGaussianBlur stdDeviation="2"/>
<feComposite in2="hardAlpha" operator="out"/>
<feColorMatrix type="matrix" values="0 0 0 0 0 0 0 0 0 0 0 0 0 0 0 0 0 0 0.25 0"/>
<feBlend mode="normal" in2="effect1_dropShadow_93_832" result="effect2_dropShadow_93_832"/>
<feBlend mode="normal" in="SourceGraphic" in2="effect2_dropShadow_93_832" result="shape"/>
</filter>
<filter id="filter3_f_93_832" x="-160" y="153" width="633" height="542" filterUnits="userSpaceOnUse" color-interpolation-filters="sRGB">
<feFlood flood-opacity="0" result="BackgroundImageFix"/>
<feBlend mode="normal" in="SourceGraphic" in2="BackgroundImageFix" result="shape"/>
<feGaussianBlur stdDeviation="100" result="effect1_foregroundBlur_93_832"/>
</filter>
<filter id="filter4_f_93_832" x="-131" y="185" width="556" height="495" filterUnits="userSpaceOnUse" color-interpolation-filters="sRGB">
<feFlood flood-opacity="0" result="BackgroundImageFix"/>
<feBlend mode="normal" in="SourceGraphic" in2="BackgroundImageFix" result="shape"/>
<feGaussianBlur stdDeviation="100" result="effect1_foregroundBlur_93_832"/>
</filter>
<filter id="filter5_f_93_832" x="62" y="358" width="556" height="495" filterUnits="userSpaceOnUse" color-interpolation-filters="sRGB">
<feFlood flood-opacity="0" result="BackgroundImageFix"/>
<feBlend mode="normal" in="SourceGraphic" in2="BackgroundImageFix" result="shape"/>
<feGaussianBlur stdDeviation="100" result="effect1_foregroundBlur_93_832"/>
</filter>
<filter id="filter6_di_93_832" x="90" y="606" width="30" height="30" filterUnits="userSpaceOnUse" color-interpolation-filters="sRGB">
<feFlood flood-opacity="0" result="BackgroundImageFix"/>
<feColorMatrix in="SourceAlpha" type="matrix" values="0 0 0 0 0 0 0 0 0 0 0 0 0 0 0 0 0 0 127 0" result="hardAlpha"/>
<feOffset dy="4"/>
<feGaussianBlur stdDeviation="2"/>
<feComposite in2="hardAlpha" operator="out"/>
<feColorMatrix type="matrix" values="0 0 0 0 0 0 0 0 0 0 0 0 0 0 0 0 0 0 0.25 0"/>
<feBlend mode="normal" in2="BackgroundImageFix" result="effect1_dropShadow_93_832"/>
<feBlend mode="normal" in="SourceGraphic" in2="effect1_dropShadow_93_832" result="shape"/>
<feColorMatrix in="SourceAlpha" type="matrix" values="0 0 0 0 0 0 0 0 0 0 0 0 0 0 0 0 0 0 127 0" result="hardAlpha"/>
<feOffset dy="4"/>
<feGaussianBlur stdDeviation="2"/>
<feComposite in2="hardAlpha" operator="arithmetic" k2="-1" k3="1"/>
<feColorMatrix type="matrix" values="0 0 0 0 0 0 0 0 0 0 0 0 0 0 0 0 0 0 0.25 0"/>
<feBlend mode="normal" in2="shape" result="effect2_innerShadow_93_832"/>
</filter>
<filter id="filter7_f_93_832" x="298" y="359" width="28" height="28" filterUnits="userSpaceOnUse" color-interpolation-filters="sRGB">
<feFlood flood-opacity="0" result="BackgroundImageFix"/>
<feBlend mode="normal" in="SourceGraphic" in2="BackgroundImageFix" result="shape"/>
<feGaussianBlur stdDeviation="5" result="effect1_foregroundBlur_93_832"/>
</filter>
<filter id="filter8_f_93_832" x="415" y="305" width="28" height="28" filterUnits="userSpaceOnUse" color-interpolation-filters="sRGB">
<feFlood flood-opacity="0" result="BackgroundImageFix"/>
<feBlend mode="normal" in="SourceGraphic" in2="BackgroundImageFix" result="shape"/>
<feGaussianBlur stdDeviation="5" result="effect1_foregroundBlur_93_832"/>
</filter>
<filter id="filter9_di_93_832" x="383" y="364" width="21" height="21" filterUnits="userSpaceOnUse" color-interpolation-filters="sRGB">
<feFlood flood-opacity="0" result="BackgroundImageFix"/>
<feColorMatrix in="SourceAlpha" type="matrix" values="0 0 0 0 0 0 0 0 0 0 0 0 0 0 0 0 0 0 127 0" result="hardAlpha"/>
<feOffset dy="4"/>
<feGaussianBlur stdDeviation="2"/>
<feComposite in2="hardAlpha" operator="out"/>
<feColorMatrix type="matrix" values="0 0 0 0 0 0 0 0 0 0 0 0 0 0 0 0 0 0 0.25 0"/>
<feBlend mode="normal" in2="BackgroundImageFix" result="effect1_dropShadow_93_832"/>
<feBlend mode="normal" in="SourceGraphic" in2="effect1_dropShadow_93_832" result="shape"/>
<feColorMatrix in="SourceAlpha" type="matrix" values="0 0 0 0 0 0 0 0 0 0 0 0 0 0 0 0 0 0 127 0" result="hardAlpha"/>
<feOffset dy="4"/>
<feGaussianBlur stdDeviation="2"/>
<feComposite in2="hardAlpha" operator="arithmetic" k2="-1" k3="1"/>
<feColorMatrix type="matrix" values="0 0 0 0 0 0 0 0 0 0 0 0 0 0 0 0 0 0 0.25 0"/>
<feBlend mode="normal" in2="shape" result="effect2_innerShadow_93_832"/>
</filter>
<filter id="filter10_f_93_832" x="145" y="637" width="28" height="28" filterUnits="userSpaceOnUse" color-interpolation-filters="sRGB">
<feFlood flood-opacity="0" result="BackgroundImageFix"/>
<feBlend mode="normal" in="SourceGraphic" in2="BackgroundImageFix" result="shape"/>
<feGaussianBlur stdDeviation="5" result="effect1_foregroundBlur_93_832"/>
</filter>
<filter id="filter11_f_93_832" x="145" y="637" width="28" height="28" filterUnits="userSpaceOnUse" color-interpolation-filters="sRGB">
<feFlood flood-opacity="0" result="BackgroundImageFix"/>
<feBlend mode="normal" in="SourceGraphic" in2="BackgroundImageFix" result="shape"/>
<feGaussianBlur stdDeviation="5" result="effect1_foregroundBlur_93_832"/>
</filter>
<filter id="filter12_f_93_832" x="75" y="554" width="28" height="28" filterUnits="userSpaceOnUse" color-interpolation-filters="sRGB">
<feFlood flood-opacity="0" result="BackgroundImageFix"/>
<feBlend mode="normal" in="SourceGraphic" in2="BackgroundImageFix" result="shape"/>
<feGaussianBlur stdDeviation="5" result="effect1_foregroundBlur_93_832"/>
</filter>
<filter id="filter13_f_93_832" x="75" y="554" width="28" height="28" filterUnits="userSpaceOnUse" color-interpolation-filters="sRGB">
<feFlood flood-opacity="0" result="BackgroundImageFix"/>
<feBlend mode="normal" in="SourceGraphic" in2="BackgroundImageFix" result="shape"/>
<feGaussianBlur stdDeviation="5" result="effect1_foregroundBlur_93_832"/>
</filter>
<linearGradient id="paint0_linear_93_832" x1="372.004" y1="397.497" x2="157.367" y2="616.698" gradientUnits="userSpaceOnUse">
<stop stop-color="#D9DADE"/>
<stop offset="1" stop-color="#D9DADE" stop-opacity="0"/>
</linearGradient>
<linearGradient id="paint1_linear_93_832" x1="239.5" y1="366" x2="239.5" y2="657" gradientUnits="userSpaceOnUse">
<stop offset="0.9999" stop-color="#000103"/>
<stop offset="1" stop-color="#000103" stop-opacity="0"/>
</linearGradient>
<linearGradient id="paint2_linear_93_832" x1="105" y1="606" x2="105" y2="628" gradientUnits="userSpaceOnUse">
<stop stop-color="#002442"/>
<stop offset="1" stop-color="#004B81"/>
</linearGradient>
<clipPath id="clip0_93_832">
<rect width="480" height="1024" fill="white"/>
</clipPath>
</defs>
</svg>
