<svg width="180" height="50" viewBox="0 0 180 50" fill="none" xmlns="http://www.w3.org/2000/svg">
<path d="M28.0314 2.29986L49.0906 27.9588L2.3725 23.3591L4.67236 0L28.0314 2.29986Z" fill="url(#paint0_linear_192_3)"/>
<path d="M22.9498 49.7158L2.37256 23.3589L25.3224 25.6185L22.9498 49.7158Z" fill="url(#paint1_linear_192_3)"/>
<path d="M52.89 29V14.51H59.547C61.689 14.51 62.76 15.581 62.76 17.723V19.172C62.76 19.648 62.62 20.054 62.34 20.39L61.605 21.272L62.487 22.007C62.949 22.385 63.18 22.945 63.18 23.687V25.787C63.18 27.929 62.109 29 59.967 29H52.89ZM54.654 27.404H59.988C60.94 27.404 61.416 26.928 61.416 25.976V23.624C61.416 22.672 60.94 22.196 59.988 22.196H54.654V27.404ZM54.654 20.6H59.568C60.52 20.6 60.996 20.124 60.996 19.172V17.534C60.996 16.582 60.52 16.106 59.568 16.106H54.654V20.6ZM67.0346 18.374L67.2236 18.08H68.6726L71.8646 27.53H72.2846L75.4766 18.08H76.9256L77.1146 18.374L71.9906 33.2H70.5416L70.3526 32.906L71.7596 29H70.7096L67.0346 18.374ZM81.2208 25.85V14.51H82.9008V18.08H86.8908V19.55H82.9008V26.06C82.9008 27.04 83.3908 27.53 84.3708 27.53H87.1008V28.37L86.2608 29H84.3708C82.2708 29 81.2208 27.95 81.2208 25.85ZM91.4604 25.85V21.23C91.4604 19.13 92.5104 18.08 94.6104 18.08H97.3404C99.4404 18.08 100.49 19.13 100.49 21.23V24.191H93.1404V26.06C93.1404 27.04 93.6304 27.53 94.6104 27.53H100.07V28.37L99.2304 29H94.6104C92.5104 29 91.4604 27.95 91.4604 25.85ZM93.1404 22.826H98.8104V21.02C98.8104 20.04 98.3204 19.55 97.3404 19.55H94.6104C93.6304 19.55 93.1404 20.04 93.1404 21.02V22.826ZM105.997 29V14.51H115.447V16.106H107.761V21.23H114.817V22.826H107.761V29H105.997ZM119.78 25.85V18.08H121.46V26.06C121.46 27.04 121.95 27.53 122.93 27.53H127.13V18.08H128.81V29H122.93C120.83 29 119.78 27.95 119.78 25.85ZM134.184 25.85V14.51H135.864V18.08H139.854V19.55H135.864V26.06C135.864 27.04 136.354 27.53 137.334 27.53H140.064V28.37L139.224 29H137.334C135.234 29 134.184 27.95 134.184 25.85ZM144.508 25.85V18.08H146.188V26.06C146.188 27.04 146.678 27.53 147.658 27.53H151.858V18.08H153.538V29H147.658C145.558 29 144.508 27.95 144.508 25.85ZM158.913 29V19.34C159.403 18.5 160.313 18.08 161.643 18.08H163.743L164.583 18.71V19.55H161.874C161.286 19.55 160.859 19.711 160.593 20.033V29H158.913ZM168.742 25.85V21.23C168.742 19.13 169.792 18.08 171.892 18.08H174.622C176.722 18.08 177.772 19.13 177.772 21.23V24.191H170.422V26.06C170.422 27.04 170.912 27.53 171.892 27.53H177.352V28.37L176.512 29H171.892C169.792 29 168.742 27.95 168.742 25.85ZM170.422 22.826H176.092V21.02C176.092 20.04 175.602 19.55 174.622 19.55H171.892C170.912 19.55 170.422 20.04 170.422 21.02V22.826Z" fill="white"/>
<defs>
<linearGradient id="paint0_linear_192_3" x1="28.0314" y1="2.29986" x2="25.7316" y2="25.6589" gradientUnits="userSpaceOnUse">
<stop stop-color="#00B6FF"/>
<stop offset="1" stop-color="#0083FF"/>
</linearGradient>
<linearGradient id="paint1_linear_192_3" x1="13.8475" y1="24.4887" x2="11.4749" y2="48.586" gradientUnits="userSpaceOnUse">
<stop stop-color="#030BE1"/>
<stop offset="1" stop-color="#0232F1"/>
</linearGradient>
</defs>
</svg>
