<svg width="600" height="500" viewBox="0 0 600 500" fill="none" xmlns="http://www.w3.org/2000/svg">
<g id="Elementos " clip-path="url(#clip0_228_3)">
<rect width="600" height="500" fill="#000421"/>
<g id="cadente">
<ellipse id="Ellipse 235" cx="1.87978" cy="2.98811" rx="1.87978" ry="2.98811" transform="matrix(0.638313 0.769777 -0.980122 0.198398 488.68 300)" fill="url(#paint0_linear_228_3)"/>
<path id="Line 1" d="M486.87 302.5C487.147 302.5 487.37 302.276 487.37 302C487.37 301.724 487.147 301.5 486.87 301.5L486.87 302.5ZM329 302.5L486.87 302.5L486.87 301.5L329 301.5L329 302.5Z" fill="url(#paint1_linear_228_3)"/>
</g>
<g id="cadente_2">
<path id="Line 1_2" d="M208.87 99.5C209.147 99.5 209.37 99.2762 209.37 99C209.37 98.7239 209.147 98.5 208.87 98.5L208.87 99.5ZM51 99.5L208.87 99.5L208.87 98.5L51 98.5L51 99.5Z" fill="url(#paint2_linear_228_3)"/>
</g>
<g id="piscar">
<g id="Rectangle 31" filter="url(#filter0_f_228_3)">
<rect x="475" y="157" width="8" height="8" fill="#0076C0"/>
</g>
</g>
<g id="piscar_2">
<g id="Rectangle 31_2" filter="url(#filter1_f_228_3)">
<rect x="431" y="346" width="8" height="8" fill="#0076C0"/>
</g>
<path id="Ellipse 15" d="M436 350C436 350.552 435.552 351 435 351C434.448 351 434 350.552 434 350C434 349.448 434.448 349 435 349C435.552 349 436 349.448 436 350Z" fill="#D9D9D9"/>
<path id="Ellipse 16" d="M480 161C480 161.552 479.552 162 479 162C478.448 162 478 161.552 478 161C478 160.448 478.448 160 479 160C479.552 160 480 160.448 480 161Z" fill="#D9D9D9"/>
</g>
<g id="piscar_3">
<g id="Rectangle 31_3" filter="url(#filter2_f_228_3)">
<rect x="51" y="372" width="8" height="8" fill="#0076C0"/>
</g>
<path id="Ellipse 15_2" d="M56 376C56 376.552 55.5523 377 55 377C54.4477 377 54 376.552 54 376C54 375.448 54.4477 375 55 375C55.5523 375 56 375.448 56 376Z" fill="#D9D9D9"/>
</g>
<g id="Group 5245">
<path id="Transcode" d="M64.504 34.106V32.51H75.928V34.106H71.098V47H69.334V34.106H64.504ZM79.488 47V37.34C79.978 36.5 80.888 36.08 82.218 36.08H84.318L85.158 36.71V37.55H82.449C81.861 37.55 81.434 37.711 81.168 38.033V47H79.488ZM91.8634 47C89.7494 47 88.6924 45.943 88.6924 43.829C88.6924 41.715 89.7494 40.658 91.8634 40.658H95.7064V39.02C95.7064 38.04 95.2164 37.55 94.2364 37.55H89.7424V36.71L90.5824 36.08H94.2364C96.3364 36.08 97.3864 37.13 97.3864 39.23V47H91.8634ZM90.3724 44.06C90.3724 45.04 90.8624 45.53 91.8424 45.53H95.7064V42.023H91.8424C90.8624 42.023 90.3724 42.513 90.3724 43.493V44.06ZM102.762 47V36.08H108.642C110.742 36.08 111.792 37.13 111.792 39.23V47H110.112V39.02C110.112 38.04 109.622 37.55 108.642 37.55H104.442V47H102.762ZM116.747 46.37V45.53H121.598C122.564 45.53 123.047 45.04 123.047 44.06C123.047 43.066 122.662 42.506 121.892 42.38L119.393 41.96C117.629 41.666 116.747 40.707 116.747 39.083C116.747 37.081 117.797 36.08 119.897 36.08H123.404L124.244 36.71V37.55H119.876C118.896 37.55 118.406 38.04 118.406 39.02C118.406 39.902 118.819 40.413 119.645 40.553L122.144 40.973C123.88 41.253 124.748 42.254 124.748 43.976C124.748 45.992 123.684 47 121.556 47H117.587L116.747 46.37ZM129.599 43.85V39.23C129.599 37.13 130.649 36.08 132.749 36.08H136.865L137.705 36.71V37.55H132.749C131.769 37.55 131.279 38.04 131.279 39.02V44.06C131.279 45.04 131.769 45.53 132.749 45.53H137.705V46.37L136.865 47H132.749C130.649 47 129.599 45.95 129.599 43.85ZM142.281 43.85V39.23C142.281 37.13 143.331 36.08 145.431 36.08H148.371C150.471 36.08 151.521 37.13 151.521 39.23V43.85C151.521 45.95 150.471 47 148.371 47H145.431C143.331 47 142.281 45.95 142.281 43.85ZM143.961 44.06C143.961 45.04 144.451 45.53 145.431 45.53H148.371C149.351 45.53 149.841 45.04 149.841 44.06V39.02C149.841 38.04 149.351 37.55 148.371 37.55H145.431C144.451 37.55 143.961 38.04 143.961 39.02V44.06ZM156.645 43.85V39.23C156.645 37.13 157.695 36.08 159.795 36.08H163.995V31.46H165.675V47H159.795C157.695 47 156.645 45.95 156.645 43.85ZM158.325 44.06C158.325 45.04 158.815 45.53 159.795 45.53H163.995V37.55H159.795C158.815 37.55 158.325 38.04 158.325 39.02V44.06ZM170.967 43.85V39.23C170.967 37.13 172.017 36.08 174.117 36.08H176.847C178.947 36.08 179.997 37.13 179.997 39.23V42.191H172.647V44.06C172.647 45.04 173.137 45.53 174.117 45.53H179.577V46.37L178.737 47H174.117C172.017 47 170.967 45.95 170.967 43.85ZM172.647 40.826H178.317V39.02C178.317 38.04 177.827 37.55 176.847 37.55H174.117C173.137 37.55 172.647 38.04 172.647 39.02V40.826Z" fill="white"/>
<g id="Group 33">
<g id="Group 29">
<path id="Vector 3" d="M41.0314 19.2999L62.0906 44.9588L15.3725 40.3591L17.6724 17L41.0314 19.2999Z" fill="url(#paint3_linear_228_3)"/>
<path id="Vector 4" d="M35.9498 66.7158L15.3726 40.3589L38.3224 42.6185L35.9498 66.7158Z" fill="url(#paint4_linear_228_3)"/>
</g>
</g>
</g>
<path id="Ol&#195;&#161;, tudo bem?" d="M52.92 161.328V152.112C52.92 149.664 54.144 148.44 56.592 148.44H62.208C64.656 148.44 65.88 149.664 65.88 152.112V161.328C65.88 163.776 64.656 165 62.208 165H56.592C54.144 165 52.92 163.776 52.92 161.328ZM54.936 161.544C54.936 162.632 55.48 163.176 56.568 163.176H62.232C63.32 163.176 63.864 162.632 63.864 161.544V151.896C63.864 150.808 63.32 150.264 62.232 150.264H56.568C55.48 150.264 54.936 150.808 54.936 151.896V161.544ZM72.0287 161.592V147.24H73.9487V161.784C73.9487 162.888 74.5087 163.472 75.6287 163.536V165.192C73.2287 165.192 72.0287 163.992 72.0287 161.592ZM83.7111 165C81.2951 165 80.0871 163.792 80.0871 161.376C80.0871 158.96 81.2951 157.752 83.7111 157.752H88.1031V155.88C88.1031 154.76 87.5431 154.2 86.4231 154.2H81.2871V153.24L82.2471 152.52H86.4231C88.8231 152.52 90.0231 153.72 90.0231 156.12V165H83.7111ZM82.0071 161.64C82.0071 162.76 82.5671 163.32 83.6871 163.32H88.1031V159.312H83.6871C82.5671 159.312 82.0071 159.872 82.0071 160.992V161.64ZM83.8791 150.288L86.9751 146.832L88.1511 147.96L84.8631 151.248L83.8791 150.288ZM95.0149 168L96.3589 162.408H98.3029L98.5189 162.768L96.5029 168.36L95.0149 168ZM112.871 161.4V148.44H114.791V152.52H119.351V154.2H114.791V161.64C114.791 162.76 115.351 163.32 116.471 163.32H119.591V164.28L118.631 165H116.471C114.071 165 112.871 163.8 112.871 161.4ZM124.669 161.4V152.52H126.589V161.64C126.589 162.76 127.149 163.32 128.269 163.32H133.069V152.52H134.989V165H128.269C125.869 165 124.669 163.8 124.669 161.4ZM141.036 161.4V156.12C141.036 153.72 142.236 152.52 144.636 152.52H149.436V147.24H151.356V165H144.636C142.236 165 141.036 163.8 141.036 161.4ZM142.956 161.64C142.956 162.76 143.516 163.32 144.636 163.32H149.436V154.2H144.636C143.516 154.2 142.956 154.76 142.956 155.88V161.64ZM157.405 161.4V156.12C157.405 153.72 158.605 152.52 161.005 152.52H164.365C166.765 152.52 167.965 153.72 167.965 156.12V161.4C167.965 163.8 166.765 165 164.365 165H161.005C158.605 165 157.405 163.8 157.405 161.4ZM159.325 161.64C159.325 162.76 159.885 163.32 161.005 163.32H164.365C165.485 163.32 166.045 162.76 166.045 161.64V155.88C166.045 154.76 165.485 154.2 164.365 154.2H161.005C159.885 154.2 159.325 154.76 159.325 155.88V161.64ZM182.178 165V147.24H184.098V152.52H188.898C191.298 152.52 192.498 153.72 192.498 156.12V161.4C192.498 163.8 191.298 165 188.898 165H182.178ZM184.098 163.32H188.898C190.018 163.32 190.578 162.76 190.578 161.64V155.88C190.578 154.76 190.018 154.2 188.898 154.2H184.098V163.32ZM198.355 161.4V156.12C198.355 153.72 199.555 152.52 201.955 152.52H205.075C207.475 152.52 208.675 153.72 208.675 156.12V159.504H200.275V161.64C200.275 162.76 200.835 163.32 201.955 163.32H208.195V164.28L207.235 165H201.955C199.555 165 198.355 163.8 198.355 161.4ZM200.275 157.944H206.755V155.88C206.755 154.76 206.195 154.2 205.075 154.2H201.955C200.835 154.2 200.275 154.76 200.275 155.88V157.944ZM214.728 165V152.52H228.888C231.288 152.52 232.488 153.72 232.488 156.12V165H230.568V155.88C230.568 154.76 230.008 154.2 228.888 154.2H224.568V165H222.648V154.2H216.648V165H214.728ZM237.449 150.264V149.28L238.529 148.44H243.617C246.065 148.44 247.289 149.664 247.289 152.112V154.2C247.289 156.696 246.089 157.944 243.689 157.944H242.585V159.96H240.569V156.12H243.641C244.729 156.12 245.273 155.576 245.273 154.488V151.896C245.273 150.808 244.729 150.264 243.641 150.264H237.449ZM240.401 165V162.408H242.753V165H240.401Z" fill="white"/>
<path id="Voc&#195;&#170; est&#195;&#161; recebendo este e-mail porque demonstrou interesse em explorar uma parceria conosco. Fique tranquilo, entraremos em contato em breve. Se preferir, sinta-se &#195;&#160; vontade para iniciar uma conversa pelo nosso WhatsApp." d="M51.32 199.248L51.512 198.96H52.664L55.768 208.784H56.152L59.272 198.96H60.408L60.6 199.248L57.112 210H54.808L51.32 199.248ZM63.1895 207.6V204.08C63.1895 202.48 63.9895 201.68 65.5895 201.68H67.8295C69.4295 201.68 70.2295 202.48 70.2295 204.08V207.6C70.2295 209.2 69.4295 210 67.8295 210H65.5895C63.9895 210 63.1895 209.2 63.1895 207.6ZM64.4695 207.76C64.4695 208.507 64.8428 208.88 65.5895 208.88H67.8295C68.5762 208.88 68.9495 208.507 68.9495 207.76V203.92C68.9495 203.173 68.5762 202.8 67.8295 202.8H65.5895C64.8428 202.8 64.4695 203.173 64.4695 203.92V207.76ZM74.1333 207.6V204.08C74.1333 202.48 74.9333 201.68 76.5333 201.68H79.6693L80.3093 202.16V202.8H76.5333C75.7866 202.8 75.4133 203.173 75.4133 203.92V207.76C75.4133 208.507 75.7866 208.88 76.5333 208.88H80.3093V209.52L79.6693 210H76.5333C74.9333 210 74.1333 209.2 74.1333 207.6ZM83.7957 207.6V204.08C83.7957 202.48 84.5957 201.68 86.1957 201.68H88.2757C89.8757 201.68 90.6757 202.48 90.6757 204.08V206.336H85.0757V207.76C85.0757 208.507 85.4491 208.88 86.1957 208.88H90.3557V209.52L89.7157 210H86.1957C84.5957 210 83.7957 209.2 83.7957 207.6ZM85.0757 205.296H89.3957V203.92C89.3957 203.173 89.0224 202.8 88.2757 202.8H86.1957C85.4491 202.8 85.0757 203.173 85.0757 203.92V205.296ZM85.0277 200.032L87.2357 197.872L89.4437 200.032L88.8197 200.688L87.2357 199.184L85.6517 200.688L85.0277 200.032ZM100.027 207.6V204.08C100.027 202.48 100.827 201.68 102.427 201.68H104.507C106.107 201.68 106.907 202.48 106.907 204.08V206.336H101.307V207.76C101.307 208.507 101.68 208.88 102.427 208.88H106.587V209.52L105.947 210H102.427C100.827 210 100.027 209.2 100.027 207.6ZM101.307 205.296H105.627V203.92C105.627 203.173 105.254 202.8 104.507 202.8H102.427C101.68 202.8 101.307 203.173 101.307 203.92V205.296ZM110.622 209.52V208.88H114.318C115.054 208.88 115.422 208.507 115.422 207.76C115.422 207.003 115.129 206.576 114.542 206.48L112.638 206.16C111.294 205.936 110.622 205.205 110.622 203.968C110.622 202.443 111.422 201.68 113.022 201.68H115.694L116.334 202.16V202.8H113.006C112.26 202.8 111.886 203.173 111.886 203.92C111.886 204.592 112.201 204.981 112.83 205.088L114.734 205.408C116.057 205.621 116.718 206.384 116.718 207.696C116.718 209.232 115.908 210 114.286 210H111.262L110.622 209.52ZM120.478 207.6V198.96H121.758V201.68H124.798V202.8H121.758V207.76C121.758 208.507 122.132 208.88 122.878 208.88H124.958V209.52L124.318 210H122.878C121.278 210 120.478 209.2 120.478 207.6ZM130.376 210C128.765 210 127.96 209.195 127.96 207.584C127.96 205.973 128.765 205.168 130.376 205.168H133.304V203.92C133.304 203.173 132.931 202.8 132.184 202.8H128.76V202.16L129.4 201.68H132.184C133.784 201.68 134.584 202.48 134.584 204.08V210H130.376ZM129.24 207.76C129.24 208.507 129.613 208.88 130.36 208.88H133.304V206.208H130.36C129.613 206.208 129.24 206.581 129.24 207.328V207.76ZM130.488 200.192L132.552 197.888L133.336 198.64L131.144 200.832L130.488 200.192ZM144.06 210V202.64C144.433 202 145.126 201.68 146.14 201.68H147.74L148.38 202.16V202.8H146.316C145.868 202.8 145.542 202.923 145.34 203.168V210H144.06ZM151.549 207.6V204.08C151.549 202.48 152.349 201.68 153.949 201.68H156.029C157.629 201.68 158.429 202.48 158.429 204.08V206.336H152.829V207.76C152.829 208.507 153.202 208.88 153.949 208.88H158.109V209.52L157.469 210H153.949C152.349 210 151.549 209.2 151.549 207.6ZM152.829 205.296H157.149V203.92C157.149 203.173 156.776 202.8 156.029 202.8H153.949C153.202 202.8 152.829 203.173 152.829 203.92V205.296ZM162.336 207.6V204.08C162.336 202.48 163.136 201.68 164.736 201.68H167.872L168.512 202.16V202.8H164.736C163.99 202.8 163.616 203.173 163.616 203.92V207.76C163.616 208.507 163.99 208.88 164.736 208.88H168.512V209.52L167.872 210H164.736C163.136 210 162.336 209.2 162.336 207.6ZM171.999 207.6V204.08C171.999 202.48 172.799 201.68 174.399 201.68H176.479C178.079 201.68 178.879 202.48 178.879 204.08V206.336H173.279V207.76C173.279 208.507 173.652 208.88 174.399 208.88H178.559V209.52L177.919 210H174.399C172.799 210 171.999 209.2 171.999 207.6ZM173.279 205.296H177.599V203.92C177.599 203.173 177.226 202.8 176.479 202.8H174.399C173.652 202.8 173.279 203.173 173.279 203.92V205.296ZM182.914 210V198.16H184.194V201.68H187.394C188.994 201.68 189.794 202.48 189.794 204.08V207.6C189.794 209.2 188.994 210 187.394 210H182.914ZM184.194 208.88H187.394C188.141 208.88 188.514 208.507 188.514 207.76V203.92C188.514 203.173 188.141 202.8 187.394 202.8H184.194V208.88ZM193.699 207.6V204.08C193.699 202.48 194.499 201.68 196.099 201.68H198.179C199.779 201.68 200.579 202.48 200.579 204.08V206.336H194.979V207.76C194.979 208.507 195.352 208.88 196.099 208.88H200.259V209.52L199.619 210H196.099C194.499 210 193.699 209.2 193.699 207.6ZM194.979 205.296H199.299V203.92C199.299 203.173 198.926 202.8 198.179 202.8H196.099C195.352 202.8 194.979 203.173 194.979 203.92V205.296ZM204.614 210V201.68H209.094C210.694 201.68 211.494 202.48 211.494 204.08V210H210.214V203.92C210.214 203.173 209.841 202.8 209.094 202.8H205.894V210H204.614ZM215.461 207.6V204.08C215.461 202.48 216.261 201.68 217.861 201.68H221.061V198.16H222.341V210H217.861C216.261 210 215.461 209.2 215.461 207.6ZM216.741 207.76C216.741 208.507 217.115 208.88 217.861 208.88H221.061V202.8H217.861C217.115 202.8 216.741 203.173 216.741 203.92V207.76ZM226.374 207.6V204.08C226.374 202.48 227.174 201.68 228.774 201.68H231.014C232.614 201.68 233.414 202.48 233.414 204.08V207.6C233.414 209.2 232.614 210 231.014 210H228.774C227.174 210 226.374 209.2 226.374 207.6ZM227.654 207.76C227.654 208.507 228.027 208.88 228.774 208.88H231.014C231.761 208.88 232.134 208.507 232.134 207.76V203.92C232.134 203.173 231.761 202.8 231.014 202.8H228.774C228.027 202.8 227.654 203.173 227.654 203.92V207.76ZM242.761 207.6V204.08C242.761 202.48 243.561 201.68 245.161 201.68H247.241C248.841 201.68 249.641 202.48 249.641 204.08V206.336H244.041V207.76C244.041 208.507 244.415 208.88 245.161 208.88H249.321V209.52L248.681 210H245.161C243.561 210 242.761 209.2 242.761 207.6ZM244.041 205.296H248.361V203.92C248.361 203.173 247.988 202.8 247.241 202.8H245.161C244.415 202.8 244.041 203.173 244.041 203.92V205.296ZM253.357 209.52V208.88H257.053C257.789 208.88 258.157 208.507 258.157 207.76C258.157 207.003 257.864 206.576 257.277 206.48L255.373 206.16C254.029 205.936 253.357 205.205 253.357 203.968C253.357 202.443 254.157 201.68 255.757 201.68H258.429L259.069 202.16V202.8H255.741C254.994 202.8 254.621 203.173 254.621 203.92C254.621 204.592 254.936 204.981 255.565 205.088L257.469 205.408C258.792 205.621 259.453 206.384 259.453 207.696C259.453 209.232 258.642 210 257.021 210H253.997L253.357 209.52ZM263.213 207.6V198.96H264.493V201.68H267.533V202.8H264.493V207.76C264.493 208.507 264.866 208.88 265.613 208.88H267.693V209.52L267.053 210H265.613C264.013 210 263.213 209.2 263.213 207.6ZM271.015 207.6V204.08C271.015 202.48 271.815 201.68 273.415 201.68H275.495C277.095 201.68 277.895 202.48 277.895 204.08V206.336H272.295V207.76C272.295 208.507 272.668 208.88 273.415 208.88H277.575V209.52L276.935 210H273.415C271.815 210 271.015 209.2 271.015 207.6ZM272.295 205.296H276.615V203.92C276.615 203.173 276.241 202.8 275.495 202.8H273.415C272.668 202.8 272.295 203.173 272.295 203.92V205.296ZM287.246 207.6V204.08C287.246 202.48 288.046 201.68 289.646 201.68H291.726C293.326 201.68 294.126 202.48 294.126 204.08V206.336H288.526V207.76C288.526 208.507 288.899 208.88 289.646 208.88H293.806V209.52L293.166 210H289.646C288.046 210 287.246 209.2 287.246 207.6ZM288.526 205.296H292.846V203.92C292.846 203.173 292.472 202.8 291.726 202.8H289.646C288.899 202.8 288.526 203.173 288.526 203.92V205.296ZM297.521 205.68V204.56H302.001V205.68H297.521ZM305.527 210V201.68H314.967C316.567 201.68 317.367 202.48 317.367 204.08V210H316.087V203.92C316.087 203.173 315.714 202.8 314.967 202.8H312.087V210H310.807V202.8H306.807V210H305.527ZM323.439 210C321.828 210 321.023 209.195 321.023 207.584C321.023 205.973 321.828 205.168 323.439 205.168H326.367V203.92C326.367 203.173 325.993 202.8 325.247 202.8H321.823V202.16L322.463 201.68H325.247C326.847 201.68 327.647 202.48 327.647 204.08V210H323.439ZM322.303 207.76C322.303 208.507 322.676 208.88 323.423 208.88H326.367V206.208H323.423C322.676 206.208 322.303 206.581 322.303 207.328V207.76ZM331.678 200.128V198.624H333.086V200.128H331.678ZM331.742 210V201.68H333.022V210H331.742ZM337.122 207.728V198.16H338.402V207.856C338.402 208.592 338.776 208.981 339.522 209.024V210.128C337.922 210.128 337.122 209.328 337.122 207.728ZM348.386 213.2V201.68H352.866C354.466 201.68 355.266 202.48 355.266 204.08V207.6C355.266 209.2 354.466 210 352.866 210H349.666V213.2H348.386ZM349.666 208.88H352.866C353.613 208.88 353.986 208.507 353.986 207.76V203.92C353.986 203.173 353.613 202.8 352.866 202.8H349.666V208.88ZM359.171 207.6V204.08C359.171 202.48 359.971 201.68 361.571 201.68H363.811C365.411 201.68 366.211 202.48 366.211 204.08V207.6C366.211 209.2 365.411 210 363.811 210H361.571C359.971 210 359.171 209.2 359.171 207.6ZM360.451 207.76C360.451 208.507 360.824 208.88 361.571 208.88H363.811C364.557 208.88 364.931 208.507 364.931 207.76V203.92C364.931 203.173 364.557 202.8 363.811 202.8H361.571C360.824 202.8 360.451 203.173 360.451 203.92V207.76ZM370.178 210V202.64C370.552 202 371.245 201.68 372.258 201.68H373.858L374.498 202.16V202.8H372.434C371.986 202.8 371.661 202.923 371.458 203.168V210H370.178ZM377.668 207.6V204.08C377.668 202.48 378.468 201.68 380.068 201.68H384.548V213.2H383.268V210H380.068C378.468 210 377.668 209.2 377.668 207.6ZM378.948 207.76C378.948 208.507 379.321 208.88 380.068 208.88H383.268V202.8H380.068C379.321 202.8 378.948 203.173 378.948 203.92V207.76ZM388.644 207.6V201.68H389.924V207.76C389.924 208.507 390.297 208.88 391.044 208.88H394.244V201.68H395.524V210H391.044C389.444 210 388.644 209.2 388.644 207.6ZM399.555 207.6V204.08C399.555 202.48 400.355 201.68 401.955 201.68H404.035C405.635 201.68 406.435 202.48 406.435 204.08V206.336H400.835V207.76C400.835 208.507 401.208 208.88 401.955 208.88H406.115V209.52L405.475 210H401.955C400.355 210 399.555 209.2 399.555 207.6ZM400.835 205.296H405.155V203.92C405.155 203.173 404.782 202.8 404.035 202.8H401.955C401.208 202.8 400.835 203.173 400.835 203.92V205.296ZM415.786 207.6V204.08C415.786 202.48 416.586 201.68 418.186 201.68H421.386V198.16H422.666V210H418.186C416.586 210 415.786 209.2 415.786 207.6ZM417.066 207.76C417.066 208.507 417.44 208.88 418.186 208.88H421.386V202.8H418.186C417.44 202.8 417.066 203.173 417.066 203.92V207.76ZM426.699 207.6V204.08C426.699 202.48 427.499 201.68 429.099 201.68H431.179C432.779 201.68 433.579 202.48 433.579 204.08V206.336H427.979V207.76C427.979 208.507 428.352 208.88 429.099 208.88H433.259V209.52L432.619 210H429.099C427.499 210 426.699 209.2 426.699 207.6ZM427.979 205.296H432.299V203.92C432.299 203.173 431.926 202.8 431.179 202.8H429.099C428.352 202.8 427.979 203.173 427.979 203.92V205.296ZM437.614 210V201.68H447.054C448.654 201.68 449.454 202.48 449.454 204.08V210H448.174V203.92C448.174 203.173 447.801 202.8 447.054 202.8H444.174V210H442.894V202.8H438.894V210H437.614ZM453.43 207.6V204.08C453.43 202.48 454.23 201.68 455.83 201.68H458.07C459.67 201.68 460.47 202.48 460.47 204.08V207.6C460.47 209.2 459.67 210 458.07 210H455.83C454.23 210 453.43 209.2 453.43 207.6ZM454.71 207.76C454.71 208.507 455.083 208.88 455.83 208.88H458.07C458.817 208.88 459.19 208.507 459.19 207.76V203.92C459.19 203.173 458.817 202.8 458.07 202.8H455.83C455.083 202.8 454.71 203.173 454.71 203.92V207.76ZM464.502 210V201.68H468.982C470.582 201.68 471.382 202.48 471.382 204.08V210H470.102V203.92C470.102 203.173 469.729 202.8 468.982 202.8H465.782V210H464.502ZM475.157 209.52V208.88H478.853C479.589 208.88 479.957 208.507 479.957 207.76C479.957 207.003 479.664 206.576 479.077 206.48L477.173 206.16C475.829 205.936 475.157 205.205 475.157 203.968C475.157 202.443 475.957 201.68 477.557 201.68H480.229L480.869 202.16V202.8H477.541C476.794 202.8 476.421 203.173 476.421 203.92C476.421 204.592 476.736 204.981 477.365 205.088L479.269 205.408C480.592 205.621 481.253 206.384 481.253 207.696C481.253 209.232 480.442 210 478.821 210H475.797L475.157 209.52ZM485.013 207.6V198.96H486.293V201.68H489.333V202.8H486.293V207.76C486.293 208.507 486.666 208.88 487.413 208.88H489.493V209.52L488.853 210H487.413C485.813 210 485.013 209.2 485.013 207.6ZM492.879 210V202.64C493.252 202 493.945 201.68 494.959 201.68H496.559L497.199 202.16V202.8H495.135C494.687 202.8 494.361 202.923 494.159 203.168V210H492.879ZM500.368 207.6V204.08C500.368 202.48 501.168 201.68 502.768 201.68H505.008C506.608 201.68 507.408 202.48 507.408 204.08V207.6C507.408 209.2 506.608 210 505.008 210H502.768C501.168 210 500.368 209.2 500.368 207.6ZM501.648 207.76C501.648 208.507 502.021 208.88 502.768 208.88H505.008C505.754 208.88 506.128 208.507 506.128 207.76V203.92C506.128 203.173 505.754 202.8 505.008 202.8H502.768C502.021 202.8 501.648 203.173 501.648 203.92V207.76ZM511.375 207.6V201.68H512.655V207.76C512.655 208.507 513.029 208.88 513.775 208.88H516.975V201.68H518.255V210H513.775C512.175 210 511.375 209.2 511.375 207.6ZM52.216 220.128V218.624H53.624V220.128H52.216ZM52.28 230V221.68H53.56V230H52.28ZM57.7237 230V221.68H62.2038C63.8038 221.68 64.6038 222.48 64.6038 224.08V230H63.3238V223.92C63.3238 223.173 62.9504 222.8 62.2038 222.8H59.0038V230H57.7237ZM68.6348 227.6V218.96H69.9148V221.68H72.9548V222.8H69.9148V227.76C69.9148 228.507 70.2881 228.88 71.0348 228.88H73.1148V229.52L72.4748 230H71.0348C69.4348 230 68.6348 229.2 68.6348 227.6ZM76.4364 227.6V224.08C76.4364 222.48 77.2364 221.68 78.8364 221.68H80.9164C82.5164 221.68 83.3164 222.48 83.3164 224.08V226.336H77.7164V227.76C77.7164 228.507 78.0897 228.88 78.8364 228.88H82.9964V229.52L82.3564 230H78.8364C77.2364 230 76.4364 229.2 76.4364 227.6ZM77.7164 225.296H82.0364V223.92C82.0364 223.173 81.663 222.8 80.9164 222.8H78.8364C78.0897 222.8 77.7164 223.173 77.7164 223.92V225.296ZM87.2879 230V222.64C87.6612 222 88.3545 221.68 89.3679 221.68H90.9679L91.6079 222.16V222.8H89.5439C89.0959 222.8 88.7705 222.923 88.5679 223.168V230H87.2879ZM94.777 227.6V224.08C94.777 222.48 95.577 221.68 97.177 221.68H99.257C100.857 221.68 101.657 222.48 101.657 224.08V226.336H96.057V227.76C96.057 228.507 96.4303 228.88 97.177 228.88H101.337V229.52L100.697 230H97.177C95.577 230 94.777 229.2 94.777 227.6ZM96.057 225.296H100.377V223.92C100.377 223.173 100.004 222.8 99.257 222.8H97.177C96.4303 222.8 96.057 223.173 96.057 223.92V225.296ZM105.372 229.52V228.88H109.068C109.804 228.88 110.172 228.507 110.172 227.76C110.172 227.003 109.879 226.576 109.292 226.48L107.388 226.16C106.044 225.936 105.372 225.205 105.372 223.968C105.372 222.443 106.172 221.68 107.772 221.68H110.444L111.084 222.16V222.8H107.756C107.01 222.8 106.636 223.173 106.636 223.92C106.636 224.592 106.951 224.981 107.58 225.088L109.484 225.408C110.807 225.621 111.468 226.384 111.468 227.696C111.468 229.232 110.658 230 109.036 230H106.012L105.372 229.52ZM114.973 229.52V228.88H118.669C119.405 228.88 119.773 228.507 119.773 227.76C119.773 227.003 119.479 226.576 118.893 226.48L116.989 226.16C115.645 225.936 114.973 225.205 114.973 223.968C114.973 222.443 115.773 221.68 117.373 221.68H120.045L120.685 222.16V222.8H117.357C116.61 222.8 116.237 223.173 116.237 223.92C116.237 224.592 116.551 224.981 117.181 225.088L119.085 225.408C120.407 225.621 121.069 226.384 121.069 227.696C121.069 229.232 120.258 230 118.637 230H115.613L114.973 229.52ZM124.765 227.6V224.08C124.765 222.48 125.565 221.68 127.165 221.68H129.245C130.845 221.68 131.645 222.48 131.645 224.08V226.336H126.045V227.76C126.045 228.507 126.418 228.88 127.165 228.88H131.325V229.52L130.685 230H127.165C125.565 230 124.765 229.2 124.765 227.6ZM126.045 225.296H130.365V223.92C130.365 223.173 129.991 222.8 129.245 222.8H127.165C126.418 222.8 126.045 223.173 126.045 223.92V225.296ZM140.996 227.6V224.08C140.996 222.48 141.796 221.68 143.396 221.68H145.476C147.076 221.68 147.876 222.48 147.876 224.08V226.336H142.276V227.76C142.276 228.507 142.649 228.88 143.396 228.88H147.556V229.52L146.916 230H143.396C141.796 230 140.996 229.2 140.996 227.6ZM142.276 225.296H146.596V223.92C146.596 223.173 146.222 222.8 145.476 222.8H143.396C142.649 222.8 142.276 223.173 142.276 223.92V225.296ZM151.911 230V221.68H161.351C162.951 221.68 163.751 222.48 163.751 224.08V230H162.471V223.92C162.471 223.173 162.098 222.8 161.351 222.8H158.471V230H157.191V222.8H153.191V230H151.911ZM173.171 227.6V224.08C173.171 222.48 173.971 221.68 175.571 221.68H177.651C179.251 221.68 180.051 222.48 180.051 224.08V226.336H174.451V227.76C174.451 228.507 174.824 228.88 175.571 228.88H179.731V229.52L179.091 230H175.571C173.971 230 173.171 229.2 173.171 227.6ZM174.451 225.296H178.771V223.92C178.771 223.173 178.397 222.8 177.651 222.8H175.571C174.824 222.8 174.451 223.173 174.451 223.92V225.296ZM183.286 229.76L186.23 225.76L183.398 221.92L183.51 221.68H184.694L186.966 224.832L189.238 221.68H190.422L190.534 221.92L187.718 225.76L190.646 229.76L190.534 230H189.35L186.966 226.688L184.582 230H183.398L183.286 229.76ZM193.999 233.2V221.68H198.479C200.079 221.68 200.879 222.48 200.879 224.08V227.6C200.879 229.2 200.079 230 198.479 230H195.279V233.2H193.999ZM195.279 228.88H198.479C199.225 228.88 199.599 228.507 199.599 227.76V223.92C199.599 223.173 199.225 222.8 198.479 222.8H195.279V228.88ZM204.847 227.728V218.16H206.127V227.856C206.127 228.592 206.501 228.981 207.247 229.024V230.128C205.647 230.128 204.847 229.328 204.847 227.728ZM210.539 227.6V224.08C210.539 222.48 211.339 221.68 212.939 221.68H215.179C216.779 221.68 217.579 222.48 217.579 224.08V227.6C217.579 229.2 216.779 230 215.179 230H212.939C211.339 230 210.539 229.2 210.539 227.6ZM211.819 227.76C211.819 228.507 212.193 228.88 212.939 228.88H215.179C215.926 228.88 216.299 228.507 216.299 227.76V223.92C216.299 223.173 215.926 222.8 215.179 222.8H212.939C212.193 222.8 211.819 223.173 211.819 223.92V227.76ZM221.547 230V222.64C221.921 222 222.614 221.68 223.627 221.68H225.227L225.867 222.16V222.8H223.803C223.355 222.8 223.03 222.923 222.827 223.168V230H221.547ZM230.976 230C229.365 230 228.56 229.195 228.56 227.584C228.56 225.973 229.365 225.168 230.976 225.168H233.904V223.92C233.904 223.173 233.531 222.8 232.784 222.8H229.36V222.16L230 221.68H232.784C234.384 221.68 235.184 222.48 235.184 224.08V230H230.976ZM229.84 227.76C229.84 228.507 230.213 228.88 230.96 228.88H233.904V226.208H230.96C230.213 226.208 229.84 226.581 229.84 227.328V227.76ZM239.216 230V222.64C239.589 222 240.283 221.68 241.296 221.68H242.896L243.536 222.16V222.8H241.472C241.024 222.8 240.699 222.923 240.496 223.168V230H239.216ZM252.213 227.6V221.68H253.493V227.76C253.493 228.507 253.866 228.88 254.613 228.88H257.813V221.68H259.093V230H254.613C253.013 230 252.213 229.2 252.213 227.6ZM263.252 230V221.68H272.692C274.292 221.68 275.092 222.48 275.092 224.08V230H273.812V223.92C273.812 223.173 273.439 222.8 272.692 222.8H269.812V230H268.532V222.8H264.532V230H263.252ZM281.164 230C279.553 230 278.748 229.195 278.748 227.584C278.748 225.973 279.553 225.168 281.164 225.168H284.092V223.92C284.092 223.173 283.718 222.8 282.972 222.8H279.548V222.16L280.188 221.68H282.972C284.572 221.68 285.372 222.48 285.372 224.08V230H281.164ZM280.028 227.76C280.028 228.507 280.401 228.88 281.148 228.88H284.092V226.208H281.148C280.401 226.208 280.028 226.581 280.028 227.328V227.76ZM294.911 233.2V221.68H299.391C300.991 221.68 301.791 222.48 301.791 224.08V227.6C301.791 229.2 300.991 230 299.391 230H296.191V233.2H294.911ZM296.191 228.88H299.391C300.138 228.88 300.511 228.507 300.511 227.76V223.92C300.511 223.173 300.138 222.8 299.391 222.8H296.191V228.88ZM307.792 230C306.181 230 305.376 229.195 305.376 227.584C305.376 225.973 306.181 225.168 307.792 225.168H310.72V223.92C310.72 223.173 310.346 222.8 309.6 222.8H306.176V222.16L306.816 221.68H309.6C311.2 221.68 312 222.48 312 224.08V230H307.792ZM306.656 227.76C306.656 228.507 307.029 228.88 307.776 228.88H310.72V226.208H307.776C307.029 226.208 306.656 226.581 306.656 227.328V227.76ZM316.032 230V222.64C316.405 222 317.098 221.68 318.112 221.68H319.712L320.352 222.16V222.8H318.288C317.84 222.8 317.514 222.923 317.312 223.168V230H316.032ZM323.521 227.6V224.08C323.521 222.48 324.321 221.68 325.921 221.68H329.057L329.697 222.16V222.8H325.921C325.174 222.8 324.801 223.173 324.801 223.92V227.76C324.801 228.507 325.174 228.88 325.921 228.88H329.697V229.52L329.057 230H325.921C324.321 230 323.521 229.2 323.521 227.6ZM333.183 227.6V224.08C333.183 222.48 333.983 221.68 335.583 221.68H337.663C339.263 221.68 340.063 222.48 340.063 224.08V226.336H334.463V227.76C334.463 228.507 334.837 228.88 335.583 228.88H339.743V229.52L339.103 230H335.583C333.983 230 333.183 229.2 333.183 227.6ZM334.463 225.296H338.783V223.92C338.783 223.173 338.41 222.8 337.663 222.8H335.583C334.837 222.8 334.463 223.173 334.463 223.92V225.296ZM344.035 230V222.64C344.408 222 345.101 221.68 346.115 221.68H347.715L348.355 222.16V222.8H346.291C345.843 222.8 345.517 222.923 345.315 223.168V230H344.035ZM351.588 220.128V218.624H352.996V220.128H351.588ZM351.652 230V221.68H352.932V230H351.652ZM359.064 230C357.453 230 356.648 229.195 356.648 227.584C356.648 225.973 357.453 225.168 359.064 225.168H361.992V223.92C361.992 223.173 361.618 222.8 360.872 222.8H357.448V222.16L358.088 221.68H360.872C362.472 221.68 363.272 222.48 363.272 224.08V230H359.064ZM357.928 227.76C357.928 228.507 358.301 228.88 359.048 228.88H361.992V226.208H359.048C358.301 226.208 357.928 226.581 357.928 227.328V227.76ZM372.683 227.6V224.08C372.683 222.48 373.483 221.68 375.083 221.68H378.219L378.859 222.16V222.8H375.083C374.337 222.8 373.963 223.173 373.963 223.92V227.76C373.963 228.507 374.337 228.88 375.083 228.88H378.859V229.52L378.219 230H375.083C373.483 230 372.683 229.2 372.683 227.6ZM382.346 227.6V224.08C382.346 222.48 383.146 221.68 384.746 221.68H386.986C388.586 221.68 389.386 222.48 389.386 224.08V227.6C389.386 229.2 388.586 230 386.986 230H384.746C383.146 230 382.346 229.2 382.346 227.6ZM383.626 227.76C383.626 228.507 383.999 228.88 384.746 228.88H386.986C387.732 228.88 388.106 228.507 388.106 227.76V223.92C388.106 223.173 387.732 222.8 386.986 222.8H384.746C383.999 222.8 383.626 223.173 383.626 223.92V227.76ZM393.418 230V221.68H397.898C399.498 221.68 400.298 222.48 400.298 224.08V230H399.018V223.92C399.018 223.173 398.644 222.8 397.898 222.8H394.698V230H393.418ZM404.264 227.6V224.08C404.264 222.48 405.064 221.68 406.664 221.68H408.904C410.504 221.68 411.304 222.48 411.304 224.08V227.6C411.304 229.2 410.504 230 408.904 230H406.664C405.064 230 404.264 229.2 404.264 227.6ZM405.544 227.76C405.544 228.507 405.918 228.88 406.664 228.88H408.904C409.651 228.88 410.024 228.507 410.024 227.76V223.92C410.024 223.173 409.651 222.8 408.904 222.8H406.664C405.918 222.8 405.544 223.173 405.544 223.92V227.76ZM415.016 229.52V228.88H418.712C419.448 228.88 419.816 228.507 419.816 227.76C419.816 227.003 419.523 226.576 418.936 226.48L417.032 226.16C415.688 225.936 415.016 225.205 415.016 223.968C415.016 222.443 415.816 221.68 417.416 221.68H420.088L420.728 222.16V222.8H417.4C416.654 222.8 416.28 223.173 416.28 223.92C416.28 224.592 416.595 224.981 417.224 225.088L419.128 225.408C420.451 225.621 421.112 226.384 421.112 227.696C421.112 229.232 420.302 230 418.68 230H415.656L415.016 229.52ZM424.808 227.6V224.08C424.808 222.48 425.608 221.68 427.208 221.68H430.344L430.984 222.16V222.8H427.208C426.462 222.8 426.088 223.173 426.088 223.92V227.76C426.088 228.507 426.462 228.88 427.208 228.88H430.984V229.52L430.344 230H427.208C425.608 230 424.808 229.2 424.808 227.6ZM434.471 227.6V224.08C434.471 222.48 435.271 221.68 436.871 221.68H439.111C440.711 221.68 441.511 222.48 441.511 224.08V227.6C441.511 229.2 440.711 230 439.111 230H436.871C435.271 230 434.471 229.2 434.471 227.6ZM435.751 227.76C435.751 228.507 436.124 228.88 436.871 228.88H439.111C439.857 228.88 440.231 228.507 440.231 227.76V223.92C440.231 223.173 439.857 222.8 439.111 222.8H436.871C436.124 222.8 435.751 223.173 435.751 223.92V227.76ZM445.575 230V228.272H447.127V230H445.575ZM52.44 250V238.96H59.64V240.176H53.784V244.08H59.16V245.296H53.784V250H52.44ZM62.941 240.128V238.624H64.349V240.128H62.941ZM63.005 250V241.68H64.285V250H63.005ZM68.3208 247.6V244.08C68.3208 242.48 69.1208 241.68 70.7208 241.68H75.2008V253.2H73.9208V250H70.7208C69.1208 250 68.3208 249.2 68.3208 247.6ZM69.6008 247.76C69.6008 248.507 69.9741 248.88 70.7208 248.88H73.9208V242.8H70.7208C69.9741 242.8 69.6008 243.173 69.6008 243.92V247.76ZM79.2972 247.6V241.68H80.5772V247.76C80.5772 248.507 80.9506 248.88 81.6972 248.88H84.8972V241.68H86.1772V250H81.6972C80.0972 250 79.2972 249.2 79.2972 247.6ZM90.2083 247.6V244.08C90.2083 242.48 91.0083 241.68 92.6083 241.68H94.6883C96.2883 241.68 97.0883 242.48 97.0883 244.08V246.336H91.4883V247.76C91.4883 248.507 91.8616 248.88 92.6083 248.88H96.7683V249.52L96.1283 250H92.6083C91.0083 250 90.2083 249.2 90.2083 247.6ZM91.4883 245.296H95.8083V243.92C95.8083 243.173 95.4349 242.8 94.6883 242.8H92.6083C91.8616 242.8 91.4883 243.173 91.4883 243.92V245.296ZM106.503 247.6V238.96H107.783V241.68H110.823V242.8H107.783V247.76C107.783 248.507 108.157 248.88 108.903 248.88H110.983V249.52L110.343 250H108.903C107.303 250 106.503 249.2 106.503 247.6ZM114.369 250V242.64C114.742 242 115.436 241.68 116.449 241.68H118.049L118.689 242.16V242.8H116.625C116.177 242.8 115.852 242.923 115.649 243.168V250H114.369ZM123.798 250C122.187 250 121.382 249.195 121.382 247.584C121.382 245.973 122.187 245.168 123.798 245.168H126.726V243.92C126.726 243.173 126.353 242.8 125.606 242.8H122.182V242.16L122.822 241.68H125.606C127.206 241.68 128.006 242.48 128.006 244.08V250H123.798ZM122.662 247.76C122.662 248.507 123.035 248.88 123.782 248.88H126.726V246.208H123.782C123.035 246.208 122.662 246.581 122.662 247.328V247.76ZM132.102 250V241.68H136.582C138.182 241.68 138.982 242.48 138.982 244.08V250H137.702V243.92C137.702 243.173 137.329 242.8 136.582 242.8H133.382V250H132.102ZM142.949 247.6V244.08C142.949 242.48 143.749 241.68 145.349 241.68H149.829V253.2H148.549V250H145.349C143.749 250 142.949 249.2 142.949 247.6ZM144.229 247.76C144.229 248.507 144.602 248.88 145.349 248.88H148.549V242.8H145.349C144.602 242.8 144.229 243.173 144.229 243.92V247.76ZM153.925 247.6V241.68H155.205V247.76C155.205 248.507 155.579 248.88 156.325 248.88H159.525V241.68H160.805V250H156.325C154.725 250 153.925 249.2 153.925 247.6ZM164.9 240.128V238.624H166.308V240.128H164.9ZM164.964 250V241.68H166.244V250H164.964ZM170.344 247.728V238.16H171.624V247.856C171.624 248.592 171.997 248.981 172.744 249.024V250.128C171.144 250.128 170.344 249.328 170.344 247.728ZM176.036 247.6V244.08C176.036 242.48 176.836 241.68 178.436 241.68H180.676C182.276 241.68 183.076 242.48 183.076 244.08V247.6C183.076 249.2 182.276 250 180.676 250H178.436C176.836 250 176.036 249.2 176.036 247.6ZM177.316 247.76C177.316 248.507 177.69 248.88 178.436 248.88H180.676C181.423 248.88 181.796 248.507 181.796 247.76V243.92C181.796 243.173 181.423 242.8 180.676 242.8H178.436C177.69 242.8 177.316 243.173 177.316 243.92V247.76ZM186.34 252L187.236 248.272H188.532L188.676 248.512L187.332 252.24L186.34 252ZM198.18 247.6V244.08C198.18 242.48 198.98 241.68 200.58 241.68H202.66C204.26 241.68 205.06 242.48 205.06 244.08V246.336H199.46V247.76C199.46 248.507 199.833 248.88 200.58 248.88H204.74V249.52L204.1 250H200.58C198.98 250 198.18 249.2 198.18 247.6ZM199.46 245.296H203.78V243.92C203.78 243.173 203.407 242.8 202.66 242.8H200.58C199.833 242.8 199.46 243.173 199.46 243.92V245.296ZM209.096 250V241.68H213.576C215.176 241.68 215.976 242.48 215.976 244.08V250H214.696V243.92C214.696 243.173 214.322 242.8 213.576 242.8H210.376V250H209.096ZM220.007 247.6V238.96H221.287V241.68H224.327V242.8H221.287V247.76C221.287 248.507 221.66 248.88 222.407 248.88H224.487V249.52L223.847 250H222.407C220.807 250 220.007 249.2 220.007 247.6ZM227.872 250V242.64C228.246 242 228.939 241.68 229.952 241.68H231.552L232.192 242.16V242.8H230.128C229.68 242.8 229.355 242.923 229.152 243.168V250H227.872ZM237.301 250C235.69 250 234.885 249.195 234.885 247.584C234.885 245.973 235.69 245.168 237.301 245.168H240.229V243.92C240.229 243.173 239.856 242.8 239.109 242.8H235.685V242.16L236.325 241.68H239.109C240.709 241.68 241.509 242.48 241.509 244.08V250H237.301ZM236.165 247.76C236.165 248.507 236.538 248.88 237.285 248.88H240.229V246.208H237.285C236.538 246.208 236.165 246.581 236.165 247.328V247.76ZM245.541 250V242.64C245.914 242 246.608 241.68 247.621 241.68H249.221L249.861 242.16V242.8H247.797C247.349 242.8 247.024 242.923 246.821 243.168V250H245.541ZM253.03 247.6V244.08C253.03 242.48 253.83 241.68 255.43 241.68H257.51C259.11 241.68 259.91 242.48 259.91 244.08V246.336H254.31V247.76C254.31 248.507 254.683 248.88 255.43 248.88H259.59V249.52L258.95 250H255.43C253.83 250 253.03 249.2 253.03 247.6ZM254.31 245.296H258.63V243.92C258.63 243.173 258.257 242.8 257.51 242.8H255.43C254.683 242.8 254.31 243.173 254.31 243.92V245.296ZM263.946 250V241.68H273.386C274.986 241.68 275.786 242.48 275.786 244.08V250H274.506V243.92C274.506 243.173 274.132 242.8 273.386 242.8H270.506V250H269.226V242.8H265.226V250H263.946ZM279.761 247.6V244.08C279.761 242.48 280.561 241.68 282.161 241.68H284.401C286.001 241.68 286.801 242.48 286.801 244.08V247.6C286.801 249.2 286.001 250 284.401 250H282.161C280.561 250 279.761 249.2 279.761 247.6ZM281.041 247.76C281.041 248.507 281.415 248.88 282.161 248.88H284.401C285.148 248.88 285.521 248.507 285.521 247.76V243.92C285.521 243.173 285.148 242.8 284.401 242.8H282.161C281.415 242.8 281.041 243.173 281.041 243.92V247.76ZM290.513 249.52V248.88H294.209C294.945 248.88 295.313 248.507 295.313 247.76C295.313 247.003 295.02 246.576 294.433 246.48L292.529 246.16C291.185 245.936 290.513 245.205 290.513 243.968C290.513 242.443 291.313 241.68 292.913 241.68H295.585L296.225 242.16V242.8H292.897C292.15 242.8 291.777 243.173 291.777 243.92C291.777 244.592 292.092 244.981 292.721 245.088L294.625 245.408C295.948 245.621 296.609 246.384 296.609 247.696C296.609 249.232 295.798 250 294.177 250H291.153L290.513 249.52ZM305.749 247.6V244.08C305.749 242.48 306.549 241.68 308.149 241.68H310.229C311.829 241.68 312.629 242.48 312.629 244.08V246.336H307.029V247.76C307.029 248.507 307.402 248.88 308.149 248.88H312.309V249.52L311.669 250H308.149C306.549 250 305.749 249.2 305.749 247.6ZM307.029 245.296H311.349V243.92C311.349 243.173 310.976 242.8 310.229 242.8H308.149C307.402 242.8 307.029 243.173 307.029 243.92V245.296ZM316.664 250V241.68H326.104C327.704 241.68 328.504 242.48 328.504 244.08V250H327.224V243.92C327.224 243.173 326.851 242.8 326.104 242.8H323.224V250H321.944V242.8H317.944V250H316.664ZM337.924 247.6V244.08C337.924 242.48 338.724 241.68 340.324 241.68H343.46L344.1 242.16V242.8H340.324C339.577 242.8 339.204 243.173 339.204 243.92V247.76C339.204 248.507 339.577 248.88 340.324 248.88H344.1V249.52L343.46 250H340.324C338.724 250 337.924 249.2 337.924 247.6ZM347.586 247.6V244.08C347.586 242.48 348.386 241.68 349.986 241.68H352.226C353.826 241.68 354.626 242.48 354.626 244.08V247.6C354.626 249.2 353.826 250 352.226 250H349.986C348.386 250 347.586 249.2 347.586 247.6ZM348.866 247.76C348.866 248.507 349.24 248.88 349.986 248.88H352.226C352.973 248.88 353.346 248.507 353.346 247.76V243.92C353.346 243.173 352.973 242.8 352.226 242.8H349.986C349.24 242.8 348.866 243.173 348.866 243.92V247.76ZM358.658 250V241.68H363.138C364.738 241.68 365.538 242.48 365.538 244.08V250H364.258V243.92C364.258 243.173 363.885 242.8 363.138 242.8H359.938V250H358.658ZM369.569 247.6V238.96H370.849V241.68H373.889V242.8H370.849V247.76C370.849 248.507 371.222 248.88 371.969 248.88H374.049V249.52L373.409 250H371.969C370.369 250 369.569 249.2 369.569 247.6ZM379.467 250C377.856 250 377.051 249.195 377.051 247.584C377.051 245.973 377.856 245.168 379.467 245.168H382.395V243.92C382.395 243.173 382.021 242.8 381.275 242.8H377.851V242.16L378.491 241.68H381.275C382.875 241.68 383.675 242.48 383.675 244.08V250H379.467ZM378.331 247.76C378.331 248.507 378.704 248.88 379.451 248.88H382.395V246.208H379.451C378.704 246.208 378.331 246.581 378.331 247.328V247.76ZM387.707 247.6V238.96H388.987V241.68H392.027V242.8H388.987V247.76C388.987 248.507 389.36 248.88 390.107 248.88H392.187V249.52L391.547 250H390.107C388.507 250 387.707 249.2 387.707 247.6ZM395.508 247.6V244.08C395.508 242.48 396.308 241.68 397.908 241.68H400.148C401.748 241.68 402.548 242.48 402.548 244.08V247.6C402.548 249.2 401.748 250 400.148 250H397.908C396.308 250 395.508 249.2 395.508 247.6ZM396.788 247.76C396.788 248.507 397.162 248.88 397.908 248.88H400.148C400.895 248.88 401.268 248.507 401.268 247.76V243.92C401.268 243.173 400.895 242.8 400.148 242.8H397.908C397.162 242.8 396.788 243.173 396.788 243.92V247.76ZM411.896 247.6V244.08C411.896 242.48 412.696 241.68 414.296 241.68H416.376C417.976 241.68 418.776 242.48 418.776 244.08V246.336H413.176V247.76C413.176 248.507 413.549 248.88 414.296 248.88H418.456V249.52L417.816 250H414.296C412.696 250 411.896 249.2 411.896 247.6ZM413.176 245.296H417.496V243.92C417.496 243.173 417.122 242.8 416.376 242.8H414.296C413.549 242.8 413.176 243.173 413.176 243.92V245.296ZM422.811 250V241.68H432.251C433.851 241.68 434.651 242.48 434.651 244.08V250H433.371V243.92C433.371 243.173 432.998 242.8 432.251 242.8H429.371V250H428.091V242.8H424.091V250H422.811ZM444.199 250V238.16H445.479V241.68H448.679C450.279 241.68 451.079 242.48 451.079 244.08V247.6C451.079 249.2 450.279 250 448.679 250H444.199ZM445.479 248.88H448.679C449.425 248.88 449.799 248.507 449.799 247.76V243.92C449.799 243.173 449.425 242.8 448.679 242.8H445.479V248.88ZM455.047 250V242.64C455.421 242 456.114 241.68 457.127 241.68H458.727L459.367 242.16V242.8H457.303C456.855 242.8 456.53 242.923 456.327 243.168V250H455.047ZM462.536 247.6V244.08C462.536 242.48 463.336 241.68 464.936 241.68H467.016C468.616 241.68 469.416 242.48 469.416 244.08V246.336H463.816V247.76C463.816 248.507 464.19 248.88 464.936 248.88H469.096V249.52L468.456 250H464.936C463.336 250 462.536 249.2 462.536 247.6ZM463.816 245.296H468.136V243.92C468.136 243.173 467.763 242.8 467.016 242.8H464.936C464.19 242.8 463.816 243.173 463.816 243.92V245.296ZM472.492 241.904L472.636 241.68H473.74L476.172 248.88H476.492L478.924 241.68H480.028L480.172 241.904L477.372 250H475.292L472.492 241.904ZM483.236 247.6V244.08C483.236 242.48 484.036 241.68 485.636 241.68H487.716C489.316 241.68 490.116 242.48 490.116 244.08V246.336H484.516V247.76C484.516 248.507 484.89 248.88 485.636 248.88H489.796V249.52L489.156 250H485.636C484.036 250 483.236 249.2 483.236 247.6ZM484.516 245.296H488.836V243.92C488.836 243.173 488.463 242.8 487.716 242.8H485.636C484.89 242.8 484.516 243.173 484.516 243.92V245.296ZM494.184 250V248.272H495.736V250H494.184ZM51.96 269.44V268.784H56.888C57.6133 268.784 57.976 268.421 57.976 267.696V266.4C57.976 265.792 57.704 265.435 57.16 265.328L53.72 264.624C52.5467 264.389 51.96 263.605 51.96 262.272V261.408C51.96 259.776 52.776 258.96 54.408 258.96H58.28L59 259.52V260.176H54.392C53.6667 260.176 53.304 260.539 53.304 261.264V262.352C53.304 262.96 53.576 263.317 54.12 263.424L57.56 264.112C58.7333 264.347 59.32 265.136 59.32 266.48V267.552C59.32 269.184 58.504 270 56.872 270H52.68L51.96 269.44ZM63.0333 267.6V264.08C63.0333 262.48 63.8333 261.68 65.4333 261.68H67.5133C69.1133 261.68 69.9133 262.48 69.9133 264.08V266.336H64.3133V267.76C64.3133 268.507 64.6866 268.88 65.4333 268.88H69.5933V269.52L68.9533 270H65.4333C63.8333 270 63.0333 269.2 63.0333 267.6ZM64.3133 265.296H68.6333V263.92C68.6333 263.173 68.2599 262.8 67.5133 262.8H65.4333C64.6866 262.8 64.3133 263.173 64.3133 263.92V265.296ZM79.3925 273.2V261.68H83.8725C85.4725 261.68 86.2725 262.48 86.2725 264.08V267.6C86.2725 269.2 85.4725 270 83.8725 270H80.6725V273.2H79.3925ZM80.6725 268.88H83.8725C84.6192 268.88 84.9925 268.507 84.9925 267.76V263.92C84.9925 263.173 84.6192 262.8 83.8725 262.8H80.6725V268.88ZM90.241 270V262.64C90.6143 262 91.3077 261.68 92.321 261.68H93.921L94.561 262.16V262.8H92.497C92.049 262.8 91.7237 262.923 91.521 263.168V270H90.241ZM97.7301 267.6V264.08C97.7301 262.48 98.5301 261.68 100.13 261.68H102.21C103.81 261.68 104.61 262.48 104.61 264.08V266.336H99.0101V267.76C99.0101 268.507 99.3835 268.88 100.13 268.88H104.29V269.52L103.65 270H100.13C98.5301 270 97.7301 269.2 97.7301 267.6ZM99.0101 265.296H103.33V263.92C103.33 263.173 102.957 262.8 102.21 262.8H100.13C99.3835 262.8 99.0101 263.173 99.0101 263.92V265.296ZM108.646 270V260.56C108.646 258.96 109.446 258.16 111.046 258.16H112.486L113.126 258.64V259.28H111.046C110.299 259.28 109.926 259.653 109.926 260.4V261.68H112.966V262.8H109.926V270H108.646ZM116.196 267.6V264.08C116.196 262.48 116.996 261.68 118.596 261.68H120.676C122.276 261.68 123.076 262.48 123.076 264.08V266.336H117.476V267.76C117.476 268.507 117.849 268.88 118.596 268.88H122.756V269.52L122.116 270H118.596C116.996 270 116.196 269.2 116.196 267.6ZM117.476 265.296H121.796V263.92C121.796 263.173 121.422 262.8 120.676 262.8H118.596C117.849 262.8 117.476 263.173 117.476 263.92V265.296ZM127.047 270V262.64C127.421 262 128.114 261.68 129.127 261.68H130.727L131.367 262.16V262.8H129.303C128.855 262.8 128.53 262.923 128.327 263.168V270H127.047ZM134.6 260.128V258.624H136.008V260.128H134.6ZM134.664 270V261.68H135.944V270H134.664ZM140.044 270V262.64C140.417 262 141.111 261.68 142.124 261.68H143.724L144.364 262.16V262.8H142.3C141.852 262.8 141.527 262.923 141.324 263.168V270H140.044ZM145.94 272L146.836 268.272H148.132L148.276 268.512L146.932 272.24L145.94 272ZM157.588 269.52V268.88H161.284C162.02 268.88 162.388 268.507 162.388 267.76C162.388 267.003 162.095 266.576 161.508 266.48L159.604 266.16C158.26 265.936 157.588 265.205 157.588 263.968C157.588 262.443 158.388 261.68 159.988 261.68H162.66L163.3 262.16V262.8H159.972C159.225 262.8 158.852 263.173 158.852 263.92C158.852 264.592 159.167 264.981 159.796 265.088L161.7 265.408C163.023 265.621 163.684 266.384 163.684 267.696C163.684 269.232 162.873 270 161.252 270H158.228L157.588 269.52ZM167.444 260.128V258.624H168.852V260.128H167.444ZM167.508 270V261.68H168.788V270H167.508ZM172.952 270V261.68H177.432C179.032 261.68 179.832 262.48 179.832 264.08V270H178.552V263.92C178.552 263.173 178.179 262.8 177.432 262.8H174.232V270H172.952ZM183.863 267.6V258.96H185.143V261.68H188.183V262.8H185.143V267.76C185.143 268.507 185.516 268.88 186.263 268.88H188.343V269.52L187.703 270H186.263C184.663 270 183.863 269.2 183.863 267.6ZM193.76 270C192.15 270 191.344 269.195 191.344 267.584C191.344 265.973 192.15 265.168 193.76 265.168H196.688V263.92C196.688 263.173 196.315 262.8 195.568 262.8H192.144V262.16L192.784 261.68H195.568C197.168 261.68 197.968 262.48 197.968 264.08V270H193.76ZM192.624 267.76C192.624 268.507 192.998 268.88 193.744 268.88H196.688V266.208H193.744C192.998 266.208 192.624 266.581 192.624 267.328V267.76ZM201.424 265.68V264.56H205.904V265.68H201.424ZM209.11 269.52V268.88H212.806C213.542 268.88 213.91 268.507 213.91 267.76C213.91 267.003 213.617 266.576 213.03 266.48L211.126 266.16C209.782 265.936 209.11 265.205 209.11 263.968C209.11 262.443 209.91 261.68 211.51 261.68H214.182L214.822 262.16V262.8H211.494C210.747 262.8 210.374 263.173 210.374 263.92C210.374 264.592 210.689 264.981 211.318 265.088L213.222 265.408C214.545 265.621 215.206 266.384 215.206 267.696C215.206 269.232 214.395 270 212.774 270H209.75L209.11 269.52ZM218.902 267.6V264.08C218.902 262.48 219.702 261.68 221.302 261.68H223.382C224.982 261.68 225.782 262.48 225.782 264.08V266.336H220.182V267.76C220.182 268.507 220.555 268.88 221.302 268.88H225.462V269.52L224.822 270H221.302C219.702 270 218.902 269.2 218.902 267.6ZM220.182 265.296H224.502V263.92C224.502 263.173 224.129 262.8 223.382 262.8H221.302C220.555 262.8 220.182 263.173 220.182 263.92V265.296ZM237.229 270C235.619 270 234.813 269.195 234.813 267.584C234.813 265.973 235.619 265.168 237.229 265.168H240.157V263.92C240.157 263.173 239.784 262.8 239.037 262.8H235.613V262.16L236.253 261.68H239.037C240.637 261.68 241.437 262.48 241.437 264.08V270H237.229ZM236.093 267.76C236.093 268.507 236.467 268.88 237.213 268.88H240.157V266.208H237.213C236.467 266.208 236.093 266.581 236.093 267.328V267.76ZM236.477 258.64L237.261 257.888L239.325 260.192L238.653 260.848L236.477 258.64ZM250.017 261.904L250.161 261.68H251.265L253.697 268.88H254.017L256.449 261.68H257.553L257.697 261.904L254.897 270H252.817L250.017 261.904ZM260.761 267.6V264.08C260.761 262.48 261.561 261.68 263.161 261.68H265.401C267.001 261.68 267.801 262.48 267.801 264.08V267.6C267.801 269.2 267.001 270 265.401 270H263.161C261.561 270 260.761 269.2 260.761 267.6ZM262.041 267.76C262.041 268.507 262.415 268.88 263.161 268.88H265.401C266.148 268.88 266.521 268.507 266.521 267.76V263.92C266.521 263.173 266.148 262.8 265.401 262.8H263.161C262.415 262.8 262.041 263.173 262.041 263.92V267.76ZM271.833 270V261.68H276.313C277.913 261.68 278.713 262.48 278.713 264.08V270H277.433V263.92C277.433 263.173 277.06 262.8 276.313 262.8H273.113V270H271.833ZM282.744 267.6V258.96H284.024V261.68H287.064V262.8H284.024V267.76C284.024 268.507 284.397 268.88 285.144 268.88H287.224V269.52L286.584 270H285.144C283.544 270 282.744 269.2 282.744 267.6ZM292.642 270C291.031 270 290.226 269.195 290.226 267.584C290.226 265.973 291.031 265.168 292.642 265.168H295.57V263.92C295.57 263.173 295.196 262.8 294.45 262.8H291.026V262.16L291.666 261.68H294.45C296.05 261.68 296.85 262.48 296.85 264.08V270H292.642ZM291.506 267.76C291.506 268.507 291.879 268.88 292.626 268.88H295.57V266.208H292.626C291.879 266.208 291.506 266.581 291.506 267.328V267.76ZM300.818 267.6V264.08C300.818 262.48 301.618 261.68 303.218 261.68H306.418V258.16H307.698V270H303.218C301.618 270 300.818 269.2 300.818 267.6ZM302.098 267.76C302.098 268.507 302.471 268.88 303.218 268.88H306.418V262.8H303.218C302.471 262.8 302.098 263.173 302.098 263.92V267.76ZM311.73 267.6V264.08C311.73 262.48 312.53 261.68 314.13 261.68H316.21C317.81 261.68 318.61 262.48 318.61 264.08V266.336H313.01V267.76C313.01 268.507 313.383 268.88 314.13 268.88H318.29V269.52L317.65 270H314.13C312.53 270 311.73 269.2 311.73 267.6ZM313.01 265.296H317.33V263.92C317.33 263.173 316.957 262.8 316.21 262.8H314.13C313.383 262.8 313.01 263.173 313.01 263.92V265.296ZM328.089 273.2V261.68H332.569C334.169 261.68 334.969 262.48 334.969 264.08V267.6C334.969 269.2 334.169 270 332.569 270H329.369V273.2H328.089ZM329.369 268.88H332.569C333.316 268.88 333.689 268.507 333.689 267.76V263.92C333.689 263.173 333.316 262.8 332.569 262.8H329.369V268.88ZM340.97 270C339.359 270 338.554 269.195 338.554 267.584C338.554 265.973 339.359 265.168 340.97 265.168H343.898V263.92C343.898 263.173 343.525 262.8 342.778 262.8H339.354V262.16L339.994 261.68H342.778C344.378 261.68 345.178 262.48 345.178 264.08V270H340.97ZM339.834 267.76C339.834 268.507 340.207 268.88 340.954 268.88H343.898V266.208H340.954C340.207 266.208 339.834 266.581 339.834 267.328V267.76ZM349.21 270V262.64C349.583 262 350.276 261.68 351.29 261.68H352.89L353.53 262.16V262.8H351.466C351.018 262.8 350.692 262.923 350.49 263.168V270H349.21ZM358.639 270C357.028 270 356.223 269.195 356.223 267.584C356.223 265.973 357.028 265.168 358.639 265.168H361.567V263.92C361.567 263.173 361.193 262.8 360.447 262.8H357.023V262.16L357.663 261.68H360.447C362.047 261.68 362.847 262.48 362.847 264.08V270H358.639ZM357.503 267.76C357.503 268.507 357.876 268.88 358.623 268.88H361.567V266.208H358.623C357.876 266.208 357.503 266.581 357.503 267.328V267.76ZM372.322 260.128V258.624H373.73V260.128H372.322ZM372.386 270V261.68H373.666V270H372.386ZM377.83 270V261.68H382.31C383.91 261.68 384.71 262.48 384.71 264.08V270H383.43V263.92C383.43 263.173 383.057 262.8 382.31 262.8H379.11V270H377.83ZM388.741 260.128V258.624H390.149V260.128H388.741ZM388.805 270V261.68H390.085V270H388.805ZM394.121 267.6V264.08C394.121 262.48 394.921 261.68 396.521 261.68H399.657L400.297 262.16V262.8H396.521C395.774 262.8 395.401 263.173 395.401 263.92V267.76C395.401 268.507 395.774 268.88 396.521 268.88H400.297V269.52L399.657 270H396.521C394.921 270 394.121 269.2 394.121 267.6ZM403.847 260.128V258.624H405.255V260.128H403.847ZM403.911 270V261.68H405.191V270H403.911ZM411.323 270C409.712 270 408.907 269.195 408.907 267.584C408.907 265.973 409.712 265.168 411.323 265.168H414.251V263.92C414.251 263.173 413.878 262.8 413.131 262.8H409.707V262.16L410.347 261.68H413.131C414.731 261.68 415.531 262.48 415.531 264.08V270H411.323ZM410.187 267.76C410.187 268.507 410.56 268.88 411.307 268.88H414.251V266.208H411.307C410.56 266.208 410.187 266.581 410.187 267.328V267.76ZM419.563 270V262.64C419.936 262 420.63 261.68 421.643 261.68H423.243L423.883 262.16V262.8H421.819C421.371 262.8 421.046 262.923 420.843 263.168V270H419.563ZM52.216 287.6V281.68H53.496V287.76C53.496 288.507 53.8693 288.88 54.616 288.88H57.816V281.68H59.096V290H54.616C53.016 290 52.216 289.2 52.216 287.6ZM63.255 290V281.68H72.695C74.295 281.68 75.095 282.48 75.095 284.08V290H73.815V283.92C73.815 283.173 73.4417 282.8 72.695 282.8H69.815V290H68.535V282.8H64.535V290H63.255ZM81.1668 290C79.5561 290 78.7508 289.195 78.7508 287.584C78.7508 285.973 79.5561 285.168 81.1668 285.168H84.0948V283.92C84.0948 283.173 83.7214 282.8 82.9748 282.8H79.5508V282.16L80.1908 281.68H82.9748C84.5748 281.68 85.3748 282.48 85.3748 284.08V290H81.1668ZM80.0308 287.76C80.0308 288.507 80.4041 288.88 81.1508 288.88H84.0948V286.208H81.1508C80.4041 286.208 80.0308 286.581 80.0308 287.328V287.76ZM94.7864 287.6V284.08C94.7864 282.48 95.5864 281.68 97.1864 281.68H100.322L100.962 282.16V282.8H97.1864C96.4397 282.8 96.0664 283.173 96.0664 283.92V287.76C96.0664 288.507 96.4397 288.88 97.1864 288.88H100.962V289.52L100.322 290H97.1864C95.5864 290 94.7864 289.2 94.7864 287.6ZM104.449 287.6V284.08C104.449 282.48 105.249 281.68 106.849 281.68H109.089C110.689 281.68 111.489 282.48 111.489 284.08V287.6C111.489 289.2 110.689 290 109.089 290H106.849C105.249 290 104.449 289.2 104.449 287.6ZM105.729 287.76C105.729 288.507 106.102 288.88 106.849 288.88H109.089C109.836 288.88 110.209 288.507 110.209 287.76V283.92C110.209 283.173 109.836 282.8 109.089 282.8H106.849C106.102 282.8 105.729 283.173 105.729 283.92V287.76ZM115.521 290V281.68H120.001C121.601 281.68 122.401 282.48 122.401 284.08V290H121.121V283.92C121.121 283.173 120.747 282.8 120.001 282.8H116.801V290H115.521ZM125.536 281.904L125.68 281.68H126.784L129.216 288.88H129.536L131.968 281.68H133.072L133.216 281.904L130.416 290H128.336L125.536 281.904ZM136.28 287.6V284.08C136.28 282.48 137.08 281.68 138.68 281.68H140.76C142.36 281.68 143.16 282.48 143.16 284.08V286.336H137.56V287.76C137.56 288.507 137.933 288.88 138.68 288.88H142.84V289.52L142.2 290H138.68C137.08 290 136.28 289.2 136.28 287.6ZM137.56 285.296H141.88V283.92C141.88 283.173 141.507 282.8 140.76 282.8H138.68C137.933 282.8 137.56 283.173 137.56 283.92V285.296ZM147.132 290V282.64C147.505 282 148.198 281.68 149.212 281.68H150.812L151.452 282.16V282.8H149.388C148.94 282.8 148.614 282.923 148.412 283.168V290H147.132ZM154.429 289.52V288.88H158.125C158.861 288.88 159.229 288.507 159.229 287.76C159.229 287.003 158.935 286.576 158.349 286.48L156.445 286.16C155.101 285.936 154.429 285.205 154.429 283.968C154.429 282.443 155.229 281.68 156.829 281.68H159.501L160.141 282.16V282.8H156.813C156.066 282.8 155.693 283.173 155.693 283.92C155.693 284.592 156.007 284.981 156.637 285.088L158.541 285.408C159.863 285.621 160.525 286.384 160.525 287.696C160.525 289.232 159.714 290 158.093 290H155.069L154.429 289.52ZM166.317 290C164.706 290 163.901 289.195 163.901 287.584C163.901 285.973 164.706 285.168 166.317 285.168H169.245V283.92C169.245 283.173 168.871 282.8 168.125 282.8H164.701V282.16L165.341 281.68H168.125C169.725 281.68 170.525 282.48 170.525 284.08V290H166.317ZM165.181 287.76C165.181 288.507 165.554 288.88 166.301 288.88H169.245V286.208H166.301C165.554 286.208 165.181 286.581 165.181 287.328V287.76ZM180.064 293.2V281.68H184.544C186.144 281.68 186.944 282.48 186.944 284.08V287.6C186.944 289.2 186.144 290 184.544 290H181.344V293.2H180.064ZM181.344 288.88H184.544C185.291 288.88 185.664 288.507 185.664 287.76V283.92C185.664 283.173 185.291 282.8 184.544 282.8H181.344V288.88ZM190.849 287.6V284.08C190.849 282.48 191.649 281.68 193.249 281.68H195.329C196.929 281.68 197.729 282.48 197.729 284.08V286.336H192.129V287.76C192.129 288.507 192.502 288.88 193.249 288.88H197.409V289.52L196.769 290H193.249C191.649 290 190.849 289.2 190.849 287.6ZM192.129 285.296H196.449V283.92C196.449 283.173 196.076 282.8 195.329 282.8H193.249C192.502 282.8 192.129 283.173 192.129 283.92V285.296ZM201.7 287.728V278.16H202.98V287.856C202.98 288.592 203.354 288.981 204.1 289.024V290.128C202.5 290.128 201.7 289.328 201.7 287.728ZM207.393 287.6V284.08C207.393 282.48 208.193 281.68 209.793 281.68H212.033C213.633 281.68 214.433 282.48 214.433 284.08V287.6C214.433 289.2 213.633 290 212.033 290H209.793C208.193 290 207.393 289.2 207.393 287.6ZM208.673 287.76C208.673 288.507 209.046 288.88 209.793 288.88H212.033C212.779 288.88 213.153 288.507 213.153 287.76V283.92C213.153 283.173 212.779 282.8 212.033 282.8H209.793C209.046 282.8 208.673 283.173 208.673 283.92V287.76ZM223.908 290V281.68H228.388C229.988 281.68 230.788 282.48 230.788 284.08V290H229.508V283.92C229.508 283.173 229.135 282.8 228.388 282.8H225.188V290H223.908ZM234.755 287.6V284.08C234.755 282.48 235.555 281.68 237.155 281.68H239.395C240.995 281.68 241.795 282.48 241.795 284.08V287.6C241.795 289.2 240.995 290 239.395 290H237.155C235.555 290 234.755 289.2 234.755 287.6ZM236.035 287.76C236.035 288.507 236.408 288.88 237.155 288.88H239.395C240.142 288.88 240.515 288.507 240.515 287.76V283.92C240.515 283.173 240.142 282.8 239.395 282.8H237.155C236.408 282.8 236.035 283.173 236.035 283.92V287.76ZM245.507 289.52V288.88H249.203C249.939 288.88 250.307 288.507 250.307 287.76C250.307 287.003 250.014 286.576 249.427 286.48L247.523 286.16C246.179 285.936 245.507 285.205 245.507 283.968C245.507 282.443 246.307 281.68 247.907 281.68H250.579L251.219 282.16V282.8H247.891C247.144 282.8 246.771 283.173 246.771 283.92C246.771 284.592 247.086 284.981 247.715 285.088L249.619 285.408C250.942 285.621 251.603 286.384 251.603 287.696C251.603 289.232 250.792 290 249.171 290H246.147L245.507 289.52ZM255.107 289.52V288.88H258.803C259.539 288.88 259.907 288.507 259.907 287.76C259.907 287.003 259.614 286.576 259.027 286.48L257.123 286.16C255.779 285.936 255.107 285.205 255.107 283.968C255.107 282.443 255.907 281.68 257.507 281.68H260.179L260.819 282.16V282.8H257.491C256.744 282.8 256.371 283.173 256.371 283.92C256.371 284.592 256.686 284.981 257.315 285.088L259.219 285.408C260.542 285.621 261.203 286.384 261.203 287.696C261.203 289.232 260.392 290 258.771 290H255.747L255.107 289.52ZM264.899 287.6V284.08C264.899 282.48 265.699 281.68 267.299 281.68H269.539C271.139 281.68 271.939 282.48 271.939 284.08V287.6C271.939 289.2 271.139 290 269.539 290H267.299C265.699 290 264.899 289.2 264.899 287.6ZM266.179 287.76C266.179 288.507 266.552 288.88 267.299 288.88H269.539C270.286 288.88 270.659 288.507 270.659 287.76V283.92C270.659 283.173 270.286 282.8 269.539 282.8H267.299C266.552 282.8 266.179 283.173 266.179 283.92V287.76ZM280.614 279.248L280.822 278.96H281.894L284.198 288.784H284.406L286.822 280.176H288.166L290.566 288.784H290.79L293.094 278.96H294.166L294.374 279.248L291.83 290H289.606L287.494 282.352L285.382 290H283.158L280.614 279.248ZM297.733 290V278.16H299.013V281.68H302.213C303.813 281.68 304.613 282.48 304.613 284.08V290H303.333V283.92C303.333 283.173 302.96 282.8 302.213 282.8H299.013V290H297.733ZM310.676 290C309.065 290 308.26 289.195 308.26 287.584C308.26 285.973 309.065 285.168 310.676 285.168H313.604V283.92C313.604 283.173 313.231 282.8 312.484 282.8H309.06V282.16L309.7 281.68H312.484C314.084 281.68 314.884 282.48 314.884 284.08V290H310.676ZM309.54 287.76C309.54 288.507 309.913 288.88 310.66 288.88H313.604V286.208H310.66C309.913 286.208 309.54 286.581 309.54 287.328V287.76ZM318.916 287.6V278.96H320.196V281.68H323.236V282.8H320.196V287.76C320.196 288.507 320.569 288.88 321.316 288.88H323.396V289.52L322.756 290H321.316C319.716 290 318.916 289.2 318.916 287.6ZM326.526 289.52V288.88H330.222C330.958 288.88 331.326 288.507 331.326 287.76C331.326 287.003 331.032 286.576 330.446 286.48L328.542 286.16C327.198 285.936 326.526 285.205 326.526 283.968C326.526 282.443 327.326 281.68 328.926 281.68H331.598L332.238 282.16V282.8H328.91C328.163 282.8 327.79 283.173 327.79 283.92C327.79 284.592 328.104 284.981 328.734 285.088L330.638 285.408C331.96 285.621 332.622 286.384 332.622 287.696C332.622 289.232 331.811 290 330.19 290H327.166L326.526 289.52ZM335.486 289.712L339.102 278.96H341.31L344.926 289.712L344.734 290H343.63L342.718 287.216H337.694L336.782 290H335.678L335.486 289.712ZM338.094 286H342.318L340.398 280.176H340.014L338.094 286ZM348.124 293.2V281.68H352.604C354.204 281.68 355.004 282.48 355.004 284.08V287.6C355.004 289.2 354.204 290 352.604 290H349.404V293.2H348.124ZM349.404 288.88H352.604C353.35 288.88 353.724 288.507 353.724 287.76V283.92C353.724 283.173 353.35 282.8 352.604 282.8H349.404V288.88ZM359.036 293.2V281.68H363.516C365.116 281.68 365.916 282.48 365.916 284.08V287.6C365.916 289.2 365.116 290 363.516 290H360.316V293.2H359.036ZM360.316 288.88H363.516C364.263 288.88 364.636 288.507 364.636 287.76V283.92C364.636 283.173 364.263 282.8 363.516 282.8H360.316V288.88ZM369.981 290V288.272H371.533V290H369.981Z" fill="#D9DADE"/>
<g id="Group 5246">
<g id="Group 33_2">
<path id="Rectangle 34" d="M51 320C51 315.582 54.5817 312 59 312H233C237.418 312 241 315.582 241 320V351.5C241 355.918 237.418 359.5 233 359.5H59C54.5817 359.5 51 355.918 51 351.5V320Z" fill="url(#paint5_linear_228_3)"/>
<path id="WhatsApp" d="M102.48 330.248L102.688 329.96H103.76L106.064 339.784H106.272L108.688 331.176H110.032L112.432 339.784H112.656L114.96 329.96H116.032L116.24 330.248L113.696 341H111.472L109.36 333.352L107.248 341H105.024L102.48 330.248ZM119.599 341V329.16H120.879V332.68H124.079C125.679 332.68 126.479 333.48 126.479 335.08V341H125.199V334.92C125.199 334.173 124.825 333.8 124.079 333.8H120.879V341H119.599ZM132.542 341C130.931 341 130.126 340.195 130.126 338.584C130.126 336.973 130.931 336.168 132.542 336.168H135.47V334.92C135.47 334.173 135.096 333.8 134.35 333.8H130.926V333.16L131.566 332.68H134.35C135.95 332.68 136.75 333.48 136.75 335.08V341H132.542ZM131.406 338.76C131.406 339.507 131.779 339.88 132.526 339.88H135.47V337.208H132.526C131.779 337.208 131.406 337.581 131.406 338.328V338.76ZM140.782 338.6V329.96H142.062V332.68H145.102V333.8H142.062V338.76C142.062 339.507 142.435 339.88 143.182 339.88H145.262V340.52L144.622 341H143.182C141.582 341 140.782 340.2 140.782 338.6ZM148.391 340.52V339.88H152.087C152.823 339.88 153.191 339.507 153.191 338.76C153.191 338.003 152.898 337.576 152.311 337.48L150.407 337.16C149.063 336.936 148.391 336.205 148.391 334.968C148.391 333.443 149.191 332.68 150.791 332.68H153.463L154.103 333.16V333.8H150.775C150.029 333.8 149.655 334.173 149.655 334.92C149.655 335.592 149.97 335.981 150.599 336.088L152.503 336.408C153.826 336.621 154.487 337.384 154.487 338.696C154.487 340.232 153.677 341 152.055 341H149.031L148.391 340.52ZM157.351 340.712L160.967 329.96H163.175L166.791 340.712L166.599 341H165.495L164.583 338.216H159.559L158.647 341H157.543L157.351 340.712ZM159.959 337H164.183L162.263 331.176H161.879L159.959 337ZM169.989 344.2V332.68H174.469C176.069 332.68 176.869 333.48 176.869 335.08V338.6C176.869 340.2 176.069 341 174.469 341H171.269V344.2H169.989ZM171.269 339.88H174.469C175.216 339.88 175.589 339.507 175.589 338.76V334.92C175.589 334.173 175.216 333.8 174.469 333.8H171.269V339.88ZM180.902 344.2V332.68H185.382C186.982 332.68 187.782 333.48 187.782 335.08V338.6C187.782 340.2 186.982 341 185.382 341H182.182V344.2H180.902ZM182.182 339.88H185.382C186.129 339.88 186.502 339.507 186.502 338.76V334.92C186.502 334.173 186.129 333.8 185.382 333.8H182.182V339.88Z" fill="white"/>
</g>
</g>
</g>
<defs>
<filter id="filter0_f_228_3" x="465" y="147" width="28" height="28" filterUnits="userSpaceOnUse" color-interpolation-filters="sRGB">
<feFlood flood-opacity="0" result="BackgroundImageFix"/>
<feBlend mode="normal" in="SourceGraphic" in2="BackgroundImageFix" result="shape"/>
<feGaussianBlur stdDeviation="5" result="effect1_foregroundBlur_228_3"/>
</filter>
<filter id="filter1_f_228_3" x="421" y="336" width="28" height="28" filterUnits="userSpaceOnUse" color-interpolation-filters="sRGB">
<feFlood flood-opacity="0" result="BackgroundImageFix"/>
<feBlend mode="normal" in="SourceGraphic" in2="BackgroundImageFix" result="shape"/>
<feGaussianBlur stdDeviation="5" result="effect1_foregroundBlur_228_3"/>
</filter>
<filter id="filter2_f_228_3" x="41" y="362" width="28" height="28" filterUnits="userSpaceOnUse" color-interpolation-filters="sRGB">
<feFlood flood-opacity="0" result="BackgroundImageFix"/>
<feBlend mode="normal" in="SourceGraphic" in2="BackgroundImageFix" result="shape"/>
<feGaussianBlur stdDeviation="5" result="effect1_foregroundBlur_228_3"/>
</filter>
<linearGradient id="paint0_linear_228_3" x1="1.87978" y1="0" x2="1.87978" y2="5.97623" gradientUnits="userSpaceOnUse">
<stop stop-color="white" stop-opacity="0.44"/>
<stop offset="1" stop-color="white" stop-opacity="0"/>
</linearGradient>
<linearGradient id="paint1_linear_228_3" x1="443.018" y1="302.5" x2="364.082" y2="302.5" gradientUnits="userSpaceOnUse">
<stop stop-color="white" stop-opacity="0.38"/>
<stop offset="1" stop-opacity="0"/>
</linearGradient>
<linearGradient id="paint2_linear_228_3" x1="165.018" y1="99.5" x2="86.0823" y2="99.5002" gradientUnits="userSpaceOnUse">
<stop stop-color="white" stop-opacity="0.38"/>
<stop offset="1" stop-opacity="0"/>
</linearGradient>
<linearGradient id="paint3_linear_228_3" x1="41.0314" y1="19.2999" x2="38.7316" y2="42.6589" gradientUnits="userSpaceOnUse">
<stop stop-color="#00B6FF"/>
<stop offset="1" stop-color="#0083FF"/>
</linearGradient>
<linearGradient id="paint4_linear_228_3" x1="26.8475" y1="41.4887" x2="24.4749" y2="65.586" gradientUnits="userSpaceOnUse">
<stop stop-color="#030BE1"/>
<stop offset="1" stop-color="#0232F1"/>
</linearGradient>
<linearGradient id="paint5_linear_228_3" x1="146" y1="312" x2="146" y2="359.5" gradientUnits="userSpaceOnUse">
<stop stop-color="#62AEF8"/>
<stop offset="1" stop-color="#1242BE"/>
</linearGradient>
<clipPath id="clip0_228_3">
<rect width="600" height="500" fill="white"/>
</clipPath>
</defs>
</svg>
