<svg width="1440" height="1024" viewBox="0 0 1440 1024" fill="none" xmlns="http://www.w3.org/2000/svg">
<g clip-path="url(#clip0_256_20)">
<rect width="1440" height="1024" fill="#000421"/>
<circle cx="809.454" cy="409.454" r="241.308" transform="rotate(44.3973 809.454 409.454)" stroke="url(#paint0_linear_256_20)" stroke-width="0.3"/>
<g filter="url(#filter0_f_256_20)">
<path d="M590 326H850V623H590V326Z" fill="#0076C0"/>
</g>
<g filter="url(#filter1_dd_256_20)">
<path d="M955 511.5C955 641.011 850.011 746 720.5 746C590.989 746 486 641.011 486 511.5C486 381.989 590.989 277 720.5 277C850.011 277 955 381.989 955 511.5Z" fill="url(#paint1_linear_256_20)" shape-rendering="crispEdges"/>
</g>
<g filter="url(#filter2_f_256_20)">
<rect x="265" y="359" width="15" height="15" fill="#0076C0"/>
</g>
<g filter="url(#filter3_f_256_20)">
<path d="M573 211H796.669V434.849H573V211Z" fill="#0076C0"/>
<path d="M870.331 457.151H1094L996.978 627.632L870.331 681V457.151Z" fill="#0076C0"/>
</g>
<g filter="url(#filter4_di_256_20)">
<circle cx="965.5" cy="224.5" r="6.5" fill="#004279"/>
</g>
<g filter="url(#filter5_i_256_20)">
<circle cx="1273.5" cy="198.5" r="4.5" fill="#004279"/>
</g>
<g filter="url(#filter6_di_256_20)">
<circle cx="278" cy="371" r="11" fill="url(#paint2_linear_256_20)"/>
</g>
<g filter="url(#filter7_di_256_20)">
<circle cx="942" cy="659" r="11" fill="url(#paint3_linear_256_20)"/>
</g>
<g filter="url(#filter8_f_256_20)">
<rect x="1263" y="191" width="15" height="15" fill="#0076C0"/>
</g>
<g filter="url(#filter9_f_256_20)">
<rect x="1167" y="627" width="15" height="15" fill="#0076C0"/>
</g>
<g filter="url(#filter10_f_256_20)">
<rect x="513" y="266" width="213" height="130" fill="#0076C0"/>
</g>
<g filter="url(#filter11_f_256_20)">
<rect x="573" y="227" width="8" height="8" fill="#0076C0"/>
</g>
<path d="M578 231C578 231.552 577.552 232 577 232C576.448 232 576 231.552 576 231C576 230.448 576.448 230 577 230C577.552 230 578 230.448 578 231Z" fill="#D9D9D9"/>
<g filter="url(#filter12_f_256_20)">
<rect x="486" y="662" width="8" height="8" fill="#0076C0"/>
</g>
<g filter="url(#filter13_f_256_20)">
<rect x="486" y="662" width="8" height="8" fill="#0076C0"/>
</g>
<path d="M491 666C491 666.552 490.552 667 490 667C489.448 667 489 666.552 489 666C489 665.448 489.448 665 490 665C490.552 665 491 665.448 491 666Z" fill="#D9D9D9"/>
<g filter="url(#filter14_f_256_20)">
<rect x="923" y="331" width="8" height="8" fill="#0076C0"/>
</g>
<g filter="url(#filter15_f_256_20)">
<rect x="923" y="331" width="8" height="8" fill="#0076C0"/>
</g>
<path d="M928 335C928 335.552 927.552 336 927 336C926.448 336 926 335.552 926 335C926 334.448 926.448 334 927 334C927.552 334 928 334.448 928 335Z" fill="#D9D9D9"/>
<g filter="url(#filter16_f_256_20)">
<rect x="1136" y="134" width="8" height="8" fill="#0076C0"/>
</g>
<path d="M1141 138C1141 138.552 1140.55 139 1140 139C1139.45 139 1139 138.552 1139 138C1139 137.448 1139.45 137 1140 137C1140.55 137 1141 137.448 1141 138Z" fill="#D9D9D9"/>
<ellipse cx="1.87978" cy="2.98811" rx="1.87978" ry="2.98811" transform="matrix(0.638313 0.769777 -0.980122 0.198398 452.68 330)" fill="url(#paint4_linear_256_20)"/>
<path d="M450.87 332.5C451.147 332.5 451.37 332.276 451.37 332C451.37 331.724 451.147 331.5 450.87 331.5L450.87 332.5ZM293 332.5L450.87 332.5L450.87 331.5L293 331.5L293 332.5Z" fill="url(#paint5_linear_256_20)"/>
<ellipse cx="1.69439" cy="2.2319" rx="1.69439" ry="2.2319" transform="matrix(0.520277 0.853998 -0.964078 0.265619 111.317 581)" fill="url(#paint6_linear_256_20)"/>
<path d="M109.987 583.5C110.263 583.5 110.487 583.276 110.487 583C110.487 582.724 110.263 582.5 109.987 582.5L109.987 583.5ZM-6 583.5L109.987 583.5L109.987 582.5L-6 582.5L-6 583.5Z" fill="url(#paint7_linear_256_20)"/>
</g>
<defs>
<filter id="filter0_f_256_20" x="190" y="-74" width="1060" height="1097" filterUnits="userSpaceOnUse" color-interpolation-filters="sRGB">
<feFlood flood-opacity="0" result="BackgroundImageFix"/>
<feBlend mode="normal" in="SourceGraphic" in2="BackgroundImageFix" result="shape"/>
<feGaussianBlur stdDeviation="200" result="effect1_foregroundBlur_256_20"/>
</filter>
<filter id="filter1_dd_256_20" x="482" y="277" width="477" height="477" filterUnits="userSpaceOnUse" color-interpolation-filters="sRGB">
<feFlood flood-opacity="0" result="BackgroundImageFix"/>
<feColorMatrix in="SourceAlpha" type="matrix" values="0 0 0 0 0 0 0 0 0 0 0 0 0 0 0 0 0 0 127 0" result="hardAlpha"/>
<feOffset dy="4"/>
<feGaussianBlur stdDeviation="2"/>
<feComposite in2="hardAlpha" operator="out"/>
<feColorMatrix type="matrix" values="0 0 0 0 0 0 0 0 0 0 0 0 0 0 0 0 0 0 0.25 0"/>
<feBlend mode="normal" in2="BackgroundImageFix" result="effect1_dropShadow_256_20"/>
<feColorMatrix in="SourceAlpha" type="matrix" values="0 0 0 0 0 0 0 0 0 0 0 0 0 0 0 0 0 0 127 0" result="hardAlpha"/>
<feOffset dy="4"/>
<feGaussianBlur stdDeviation="2"/>
<feComposite in2="hardAlpha" operator="out"/>
<feColorMatrix type="matrix" values="0 0 0 0 0 0 0 0 0 0 0 0 0 0 0 0 0 0 0.25 0"/>
<feBlend mode="normal" in2="effect1_dropShadow_256_20" result="effect2_dropShadow_256_20"/>
<feBlend mode="normal" in="SourceGraphic" in2="effect2_dropShadow_256_20" result="shape"/>
</filter>
<filter id="filter2_f_256_20" x="205" y="299" width="135" height="135" filterUnits="userSpaceOnUse" color-interpolation-filters="sRGB">
<feFlood flood-opacity="0" result="BackgroundImageFix"/>
<feBlend mode="normal" in="SourceGraphic" in2="BackgroundImageFix" result="shape"/>
<feGaussianBlur stdDeviation="30" result="effect1_foregroundBlur_256_20"/>
</filter>
<filter id="filter3_f_256_20" x="373" y="11" width="921" height="870" filterUnits="userSpaceOnUse" color-interpolation-filters="sRGB">
<feFlood flood-opacity="0" result="BackgroundImageFix"/>
<feBlend mode="normal" in="SourceGraphic" in2="BackgroundImageFix" result="shape"/>
<feGaussianBlur stdDeviation="100" result="effect1_foregroundBlur_256_20"/>
</filter>
<filter id="filter4_di_256_20" x="955" y="218" width="21" height="21" filterUnits="userSpaceOnUse" color-interpolation-filters="sRGB">
<feFlood flood-opacity="0" result="BackgroundImageFix"/>
<feColorMatrix in="SourceAlpha" type="matrix" values="0 0 0 0 0 0 0 0 0 0 0 0 0 0 0 0 0 0 127 0" result="hardAlpha"/>
<feOffset dy="4"/>
<feGaussianBlur stdDeviation="2"/>
<feComposite in2="hardAlpha" operator="out"/>
<feColorMatrix type="matrix" values="0 0 0 0 0 0 0 0 0 0 0 0 0 0 0 0 0 0 0.25 0"/>
<feBlend mode="normal" in2="BackgroundImageFix" result="effect1_dropShadow_256_20"/>
<feBlend mode="normal" in="SourceGraphic" in2="effect1_dropShadow_256_20" result="shape"/>
<feColorMatrix in="SourceAlpha" type="matrix" values="0 0 0 0 0 0 0 0 0 0 0 0 0 0 0 0 0 0 127 0" result="hardAlpha"/>
<feOffset dy="4"/>
<feGaussianBlur stdDeviation="2"/>
<feComposite in2="hardAlpha" operator="arithmetic" k2="-1" k3="1"/>
<feColorMatrix type="matrix" values="0 0 0 0 0 0 0 0 0 0 0 0 0 0 0 0 0 0 0.25 0"/>
<feBlend mode="normal" in2="shape" result="effect2_innerShadow_256_20"/>
</filter>
<filter id="filter5_i_256_20" x="1269" y="194" width="9" height="13" filterUnits="userSpaceOnUse" color-interpolation-filters="sRGB">
<feFlood flood-opacity="0" result="BackgroundImageFix"/>
<feBlend mode="normal" in="SourceGraphic" in2="BackgroundImageFix" result="shape"/>
<feColorMatrix in="SourceAlpha" type="matrix" values="0 0 0 0 0 0 0 0 0 0 0 0 0 0 0 0 0 0 127 0" result="hardAlpha"/>
<feOffset dy="4"/>
<feGaussianBlur stdDeviation="2"/>
<feComposite in2="hardAlpha" operator="arithmetic" k2="-1" k3="1"/>
<feColorMatrix type="matrix" values="0 0 0 0 0 0 0 0 0 0 0 0 0 0 0 0 0 0 0.25 0"/>
<feBlend mode="normal" in2="shape" result="effect1_innerShadow_256_20"/>
</filter>
<filter id="filter6_di_256_20" x="263" y="360" width="30" height="30" filterUnits="userSpaceOnUse" color-interpolation-filters="sRGB">
<feFlood flood-opacity="0" result="BackgroundImageFix"/>
<feColorMatrix in="SourceAlpha" type="matrix" values="0 0 0 0 0 0 0 0 0 0 0 0 0 0 0 0 0 0 127 0" result="hardAlpha"/>
<feOffset dy="4"/>
<feGaussianBlur stdDeviation="2"/>
<feComposite in2="hardAlpha" operator="out"/>
<feColorMatrix type="matrix" values="0 0 0 0 0 0 0 0 0 0 0 0 0 0 0 0 0 0 0.25 0"/>
<feBlend mode="normal" in2="BackgroundImageFix" result="effect1_dropShadow_256_20"/>
<feBlend mode="normal" in="SourceGraphic" in2="effect1_dropShadow_256_20" result="shape"/>
<feColorMatrix in="SourceAlpha" type="matrix" values="0 0 0 0 0 0 0 0 0 0 0 0 0 0 0 0 0 0 127 0" result="hardAlpha"/>
<feOffset dy="4"/>
<feGaussianBlur stdDeviation="2"/>
<feComposite in2="hardAlpha" operator="arithmetic" k2="-1" k3="1"/>
<feColorMatrix type="matrix" values="0 0 0 0 0 0 0 0 0 0 0 0 0 0 0 0 0 0 0.25 0"/>
<feBlend mode="normal" in2="shape" result="effect2_innerShadow_256_20"/>
</filter>
<filter id="filter7_di_256_20" x="927" y="648" width="30" height="30" filterUnits="userSpaceOnUse" color-interpolation-filters="sRGB">
<feFlood flood-opacity="0" result="BackgroundImageFix"/>
<feColorMatrix in="SourceAlpha" type="matrix" values="0 0 0 0 0 0 0 0 0 0 0 0 0 0 0 0 0 0 127 0" result="hardAlpha"/>
<feOffset dy="4"/>
<feGaussianBlur stdDeviation="2"/>
<feComposite in2="hardAlpha" operator="out"/>
<feColorMatrix type="matrix" values="0 0 0 0 0 0 0 0 0 0 0 0 0 0 0 0 0 0 0.25 0"/>
<feBlend mode="normal" in2="BackgroundImageFix" result="effect1_dropShadow_256_20"/>
<feBlend mode="normal" in="SourceGraphic" in2="effect1_dropShadow_256_20" result="shape"/>
<feColorMatrix in="SourceAlpha" type="matrix" values="0 0 0 0 0 0 0 0 0 0 0 0 0 0 0 0 0 0 127 0" result="hardAlpha"/>
<feOffset dy="4"/>
<feGaussianBlur stdDeviation="2"/>
<feComposite in2="hardAlpha" operator="arithmetic" k2="-1" k3="1"/>
<feColorMatrix type="matrix" values="0 0 0 0 0 0 0 0 0 0 0 0 0 0 0 0 0 0 0.25 0"/>
<feBlend mode="normal" in2="shape" result="effect2_innerShadow_256_20"/>
</filter>
<filter id="filter8_f_256_20" x="1203" y="131" width="135" height="135" filterUnits="userSpaceOnUse" color-interpolation-filters="sRGB">
<feFlood flood-opacity="0" result="BackgroundImageFix"/>
<feBlend mode="normal" in="SourceGraphic" in2="BackgroundImageFix" result="shape"/>
<feGaussianBlur stdDeviation="30" result="effect1_foregroundBlur_256_20"/>
</filter>
<filter id="filter9_f_256_20" x="1107" y="567" width="135" height="135" filterUnits="userSpaceOnUse" color-interpolation-filters="sRGB">
<feFlood flood-opacity="0" result="BackgroundImageFix"/>
<feBlend mode="normal" in="SourceGraphic" in2="BackgroundImageFix" result="shape"/>
<feGaussianBlur stdDeviation="30" result="effect1_foregroundBlur_256_20"/>
</filter>
<filter id="filter10_f_256_20" x="353" y="106" width="533" height="450" filterUnits="userSpaceOnUse" color-interpolation-filters="sRGB">
<feFlood flood-opacity="0" result="BackgroundImageFix"/>
<feBlend mode="normal" in="SourceGraphic" in2="BackgroundImageFix" result="shape"/>
<feGaussianBlur stdDeviation="80" result="effect1_foregroundBlur_256_20"/>
</filter>
<filter id="filter11_f_256_20" x="563" y="217" width="28" height="28" filterUnits="userSpaceOnUse" color-interpolation-filters="sRGB">
<feFlood flood-opacity="0" result="BackgroundImageFix"/>
<feBlend mode="normal" in="SourceGraphic" in2="BackgroundImageFix" result="shape"/>
<feGaussianBlur stdDeviation="5" result="effect1_foregroundBlur_256_20"/>
</filter>
<filter id="filter12_f_256_20" x="476" y="652" width="28" height="28" filterUnits="userSpaceOnUse" color-interpolation-filters="sRGB">
<feFlood flood-opacity="0" result="BackgroundImageFix"/>
<feBlend mode="normal" in="SourceGraphic" in2="BackgroundImageFix" result="shape"/>
<feGaussianBlur stdDeviation="5" result="effect1_foregroundBlur_256_20"/>
</filter>
<filter id="filter13_f_256_20" x="476" y="652" width="28" height="28" filterUnits="userSpaceOnUse" color-interpolation-filters="sRGB">
<feFlood flood-opacity="0" result="BackgroundImageFix"/>
<feBlend mode="normal" in="SourceGraphic" in2="BackgroundImageFix" result="shape"/>
<feGaussianBlur stdDeviation="5" result="effect1_foregroundBlur_256_20"/>
</filter>
<filter id="filter14_f_256_20" x="913" y="321" width="28" height="28" filterUnits="userSpaceOnUse" color-interpolation-filters="sRGB">
<feFlood flood-opacity="0" result="BackgroundImageFix"/>
<feBlend mode="normal" in="SourceGraphic" in2="BackgroundImageFix" result="shape"/>
<feGaussianBlur stdDeviation="5" result="effect1_foregroundBlur_256_20"/>
</filter>
<filter id="filter15_f_256_20" x="913" y="321" width="28" height="28" filterUnits="userSpaceOnUse" color-interpolation-filters="sRGB">
<feFlood flood-opacity="0" result="BackgroundImageFix"/>
<feBlend mode="normal" in="SourceGraphic" in2="BackgroundImageFix" result="shape"/>
<feGaussianBlur stdDeviation="5" result="effect1_foregroundBlur_256_20"/>
</filter>
<filter id="filter16_f_256_20" x="1126" y="124" width="28" height="28" filterUnits="userSpaceOnUse" color-interpolation-filters="sRGB">
<feFlood flood-opacity="0" result="BackgroundImageFix"/>
<feBlend mode="normal" in="SourceGraphic" in2="BackgroundImageFix" result="shape"/>
<feGaussianBlur stdDeviation="5" result="effect1_foregroundBlur_256_20"/>
</filter>
<linearGradient id="paint0_linear_256_20" x1="809.454" y1="167.996" x2="809.454" y2="650.912" gradientUnits="userSpaceOnUse">
<stop stop-color="#D9DADE"/>
<stop offset="1" stop-color="#D9DADE" stop-opacity="0"/>
</linearGradient>
<linearGradient id="paint1_linear_256_20" x1="720.5" y1="277" x2="720.5" y2="746" gradientUnits="userSpaceOnUse">
<stop offset="0.9999" stop-color="#000103"/>
<stop offset="1" stop-color="#000103" stop-opacity="0"/>
</linearGradient>
<linearGradient id="paint2_linear_256_20" x1="278" y1="360" x2="278" y2="382" gradientUnits="userSpaceOnUse">
<stop stop-color="#002442"/>
<stop offset="1" stop-color="#004B81"/>
</linearGradient>
<linearGradient id="paint3_linear_256_20" x1="942" y1="648" x2="942" y2="670" gradientUnits="userSpaceOnUse">
<stop stop-color="#002442"/>
<stop offset="1" stop-color="#004B81"/>
</linearGradient>
<linearGradient id="paint4_linear_256_20" x1="1.87978" y1="0" x2="1.87978" y2="5.97623" gradientUnits="userSpaceOnUse">
<stop stop-color="white" stop-opacity="0.44"/>
<stop offset="1" stop-color="white" stop-opacity="0"/>
</linearGradient>
<linearGradient id="paint5_linear_256_20" x1="407.018" y1="332.5" x2="328.082" y2="332.5" gradientUnits="userSpaceOnUse">
<stop stop-color="white" stop-opacity="0.38"/>
<stop offset="1" stop-opacity="0"/>
</linearGradient>
<linearGradient id="paint6_linear_256_20" x1="1.69439" y1="0" x2="1.69439" y2="4.46379" gradientUnits="userSpaceOnUse">
<stop stop-color="white" stop-opacity="0.44"/>
<stop offset="1" stop-color="white" stop-opacity="0"/>
</linearGradient>
<linearGradient id="paint7_linear_256_20" x1="77.7685" y1="583.5" x2="19.7749" y2="583.5" gradientUnits="userSpaceOnUse">
<stop stop-color="white" stop-opacity="0.38"/>
<stop offset="1" stop-opacity="0"/>
</linearGradient>
<clipPath id="clip0_256_20">
<rect width="1440" height="1024" fill="white"/>
</clipPath>
</defs>
</svg>
