<svg width="169" height="50" viewBox="0 0 169 50" fill="none" xmlns="http://www.w3.org/2000/svg">
<path d="M28.0314 2.29986L49.0906 27.9588L2.3725 23.3591L4.67236 0L28.0314 2.29986Z" fill="url(#paint0_linear_192_3)"/>
<path d="M22.9498 49.7158L2.37256 23.3589L25.3224 25.6185L22.9498 49.7158Z" fill="url(#paint1_linear_192_3)"/>
<path d="M51.504 16.106V14.51H62.928V16.106H58.098V29H56.334V16.106H51.504ZM66.488 29V19.34C66.978 18.5 67.888 18.08 69.218 18.08H71.318L72.158 18.71V19.55H69.449C68.861 19.55 68.434 19.711 68.168 20.033V29H66.488ZM78.8634 29C76.7494 29 75.6924 27.943 75.6924 25.829C75.6924 23.715 76.7494 22.658 78.8634 22.658H82.7064V21.02C82.7064 20.04 82.2164 19.55 81.2364 19.55H76.7424V18.71L77.5824 18.08H81.2364C83.3364 18.08 84.3864 19.13 84.3864 21.23V29H78.8634ZM77.3724 26.06C77.3724 27.04 77.8624 27.53 78.8424 27.53H82.7064V24.023H78.8424C77.8624 24.023 77.3724 24.513 77.3724 25.493V26.06ZM89.7622 29V18.08H95.6422C97.7422 18.08 98.7922 19.13 98.7922 21.23V29H97.1122V21.02C97.1122 20.04 96.6222 19.55 95.6422 19.55H91.4422V29H89.7622ZM103.747 28.37V27.53H108.598C109.564 27.53 110.047 27.04 110.047 26.06C110.047 25.066 109.662 24.506 108.892 24.38L106.393 23.96C104.629 23.666 103.747 22.707 103.747 21.083C103.747 19.081 104.797 18.08 106.897 18.08H110.404L111.244 18.71V19.55H106.876C105.896 19.55 105.406 20.04 105.406 21.02C105.406 21.902 105.819 22.413 106.645 22.553L109.144 22.973C110.88 23.253 111.748 24.254 111.748 25.976C111.748 27.992 110.684 29 108.556 29H104.587L103.747 28.37ZM116.599 25.85V21.23C116.599 19.13 117.649 18.08 119.749 18.08H123.865L124.705 18.71V19.55H119.749C118.769 19.55 118.279 20.04 118.279 21.02V26.06C118.279 27.04 118.769 27.53 119.749 27.53H124.705V28.37L123.865 29H119.749C117.649 29 116.599 27.95 116.599 25.85ZM129.281 25.85V21.23C129.281 19.13 130.331 18.08 132.431 18.08H135.371C137.471 18.08 138.521 19.13 138.521 21.23V25.85C138.521 27.95 137.471 29 135.371 29H132.431C130.331 29 129.281 27.95 129.281 25.85ZM130.961 26.06C130.961 27.04 131.451 27.53 132.431 27.53H135.371C136.351 27.53 136.841 27.04 136.841 26.06V21.02C136.841 20.04 136.351 19.55 135.371 19.55H132.431C131.451 19.55 130.961 20.04 130.961 21.02V26.06ZM143.645 25.85V21.23C143.645 19.13 144.695 18.08 146.795 18.08H150.995V13.46H152.675V29H146.795C144.695 29 143.645 27.95 143.645 25.85ZM145.325 26.06C145.325 27.04 145.815 27.53 146.795 27.53H150.995V19.55H146.795C145.815 19.55 145.325 20.04 145.325 21.02V26.06ZM157.967 25.85V21.23C157.967 19.13 159.017 18.08 161.117 18.08H163.847C165.947 18.08 166.997 19.13 166.997 21.23V24.191H159.647V26.06C159.647 27.04 160.137 27.53 161.117 27.53H166.577V28.37L165.737 29H161.117C159.017 29 157.967 27.95 157.967 25.85ZM159.647 22.826H165.317V21.02C165.317 20.04 164.827 19.55 163.847 19.55H161.117C160.137 19.55 159.647 20.04 159.647 21.02V22.826Z" fill="white"/>
<defs>
<linearGradient id="paint0_linear_192_3" x1="28.0314" y1="2.29986" x2="25.7316" y2="25.6589" gradientUnits="userSpaceOnUse">
<stop stop-color="#00B6FF"/>
<stop offset="1" stop-color="#0083FF"/>
</linearGradient>
<linearGradient id="paint1_linear_192_3" x1="13.8475" y1="24.4887" x2="11.4749" y2="48.586" gradientUnits="userSpaceOnUse">
<stop stop-color="#030BE1"/>
<stop offset="1" stop-color="#0232F1"/>
</linearGradient>
</defs>
</svg>
