<svg width="116" height="16" viewBox="0 0 116 16" fill="none" xmlns="http://www.w3.org/2000/svg">
<path d="M0.504 3.106V1.51H11.928V3.106H7.098V16H5.334V3.106H0.504ZM15.488 16V6.34C15.978 5.5 16.888 5.08 18.218 5.08H20.318L21.158 5.71V6.55H18.449C17.861 6.55 17.434 6.711 17.168 7.033V16H15.488ZM27.8634 16C25.7494 16 24.6924 14.943 24.6924 12.829C24.6924 10.715 25.7494 9.658 27.8634 9.658H31.7064V8.02C31.7064 7.04 31.2164 6.55 30.2364 6.55H25.7424V5.71L26.5824 5.08H30.2364C32.3364 5.08 33.3864 6.13 33.3864 8.23V16H27.8634ZM26.3724 13.06C26.3724 14.04 26.8624 14.53 27.8424 14.53H31.7064V11.023H27.8424C26.8624 11.023 26.3724 11.513 26.3724 12.493V13.06ZM38.7622 16V5.08H44.6422C46.7422 5.08 47.7922 6.13 47.7922 8.23V16H46.1122V8.02C46.1122 7.04 45.6222 6.55 44.6422 6.55H40.4422V16H38.7622ZM52.7469 15.37V14.53H57.5979C58.5639 14.53 59.0469 14.04 59.0469 13.06C59.0469 12.066 58.6619 11.506 57.8919 11.38L55.3929 10.96C53.6289 10.666 52.7469 9.707 52.7469 8.083C52.7469 6.081 53.7969 5.08 55.8969 5.08H59.4039L60.2439 5.71V6.55H55.8759C54.8959 6.55 54.4059 7.04 54.4059 8.02C54.4059 8.902 54.8189 9.413 55.6449 9.553L58.1439 9.973C59.8799 10.253 60.7479 11.254 60.7479 12.976C60.7479 14.992 59.6839 16 57.5559 16H53.5869L52.7469 15.37ZM65.5989 12.85V8.23C65.5989 6.13 66.6489 5.08 68.7489 5.08H72.8649L73.7049 5.71V6.55H68.7489C67.7689 6.55 67.2789 7.04 67.2789 8.02V13.06C67.2789 14.04 67.7689 14.53 68.7489 14.53H73.7049V15.37L72.8649 16H68.7489C66.6489 16 65.5989 14.95 65.5989 12.85ZM78.2809 12.85V8.23C78.2809 6.13 79.3309 5.08 81.4309 5.08H84.3709C86.4709 5.08 87.5209 6.13 87.5209 8.23V12.85C87.5209 14.95 86.4709 16 84.3709 16H81.4309C79.3309 16 78.2809 14.95 78.2809 12.85ZM79.9609 13.06C79.9609 14.04 80.4509 14.53 81.4309 14.53H84.3709C85.3509 14.53 85.8409 14.04 85.8409 13.06V8.02C85.8409 7.04 85.3509 6.55 84.3709 6.55H81.4309C80.4509 6.55 79.9609 7.04 79.9609 8.02V13.06ZM92.6446 12.85V8.23C92.6446 6.13 93.6946 5.08 95.7946 5.08H99.9946V0.46H101.675V16H95.7946C93.6946 16 92.6446 14.95 92.6446 12.85ZM94.3246 13.06C94.3246 14.04 94.8146 14.53 95.7946 14.53H99.9946V6.55H95.7946C94.8146 6.55 94.3246 7.04 94.3246 8.02V13.06ZM106.967 12.85V8.23C106.967 6.13 108.017 5.08 110.117 5.08H112.847C114.947 5.08 115.997 6.13 115.997 8.23V11.191H108.647V13.06C108.647 14.04 109.137 14.53 110.117 14.53H115.577V15.37L114.737 16H110.117C108.017 16 106.967 14.95 106.967 12.85ZM108.647 9.826H114.317V8.02C114.317 7.04 113.827 6.55 112.847 6.55H110.117C109.137 6.55 108.647 7.04 108.647 8.02V9.826Z" fill="white"/>
</svg>
