<svg width="1440" height="1024" viewBox="0 0 1440 1024" fill="none" xmlns="http://www.w3.org/2000/svg">
<g id="Elementos " clip-path="url(#clip0_94_749)">
<rect width="1440" height="1024" fill="#000421"/>
<g id="Rectangle 25" filter="url(#filter0_f_94_749)">
<path d="M219 412H469.501V662.758H344.251H219V412Z" fill="#0076C0"/>
<path d="M559.499 736.242H810L701.339 927.217L559.499 987V736.242Z" fill="#0076C0"/>
</g>
<g id="cadente">
<ellipse id="Ellipse 235" cx="1.87978" cy="2.98811" rx="1.87978" ry="2.98811" transform="matrix(0.638313 0.769777 -0.980122 0.198398 119.68 436)" fill="url(#paint0_linear_94_749)"/>
<path id="Line 1" d="M117.87 438.5C118.147 438.5 118.37 438.276 118.37 438C118.37 437.724 118.147 437.5 117.87 437.5L117.87 438.5ZM-40 438.5L117.87 438.5L117.87 437.5L-40 437.5L-40 438.5Z" fill="url(#paint1_linear_94_749)"/>
</g>
<g id="cadente_2">
<ellipse id="Ellipse 235_2" cx="1.87978" cy="2.98811" rx="1.87978" ry="2.98811" transform="matrix(0.638313 0.769777 -0.980122 0.198398 593.68 121)" fill="url(#paint2_linear_94_749)"/>
<path id="Line 1_2" d="M591.87 123.5C592.147 123.5 592.37 123.276 592.37 123C592.37 122.724 592.147 122.5 591.87 122.5L591.87 123.5ZM434 123.5L591.87 123.5L591.87 122.5L434 122.5L434 123.5Z" fill="url(#paint3_linear_94_749)"/>
</g>
<g id="piscar">
<g id="Rectangle 31" filter="url(#filter1_f_94_749)">
<rect x="1097" y="340" width="8" height="8" fill="#0076C0"/>
</g>
<path id="Ellipse 15" d="M1102 344C1102 344.552 1101.55 345 1101 345C1100.45 345 1100 344.552 1100 344C1100 343.448 1100.45 343 1101 343C1101.55 343 1102 343.448 1102 344Z" fill="#D9D9D9"/>
</g>
<g id="piscar_2">
<g id="Rectangle 31_2" filter="url(#filter2_f_94_749)">
<rect x="990" y="772" width="8" height="8" fill="#0076C0"/>
</g>
<path id="Ellipse 15_2" d="M995 776C995 776.552 994.552 777 994 777C993.448 777 993 776.552 993 776C993 775.448 993.448 775 994 775C994.552 775 995 775.448 995 776Z" fill="#D9D9D9"/>
</g>
<g id="piscar_3">
<g id="Rectangle 31_3" filter="url(#filter3_f_94_749)">
<rect x="820" y="166" width="8" height="8" fill="#0076C0"/>
</g>
<path id="Ellipse 15_3" d="M825 170C825 170.552 824.552 171 824 171C823.448 171 823 170.552 823 170C823 169.448 823.448 169 824 169C824.552 169 825 169.448 825 170Z" fill="#D9D9D9"/>
</g>
</g>
<defs>
<filter id="filter0_f_94_749" x="-290" y="-97" width="1609" height="1593" filterUnits="userSpaceOnUse" color-interpolation-filters="sRGB">
<feFlood flood-opacity="0" result="BackgroundImageFix"/>
<feBlend mode="normal" in="SourceGraphic" in2="BackgroundImageFix" result="shape"/>
<feGaussianBlur stdDeviation="254.5" result="effect1_foregroundBlur_94_749"/>
</filter>
<filter id="filter1_f_94_749" x="1087" y="330" width="28" height="28" filterUnits="userSpaceOnUse" color-interpolation-filters="sRGB">
<feFlood flood-opacity="0" result="BackgroundImageFix"/>
<feBlend mode="normal" in="SourceGraphic" in2="BackgroundImageFix" result="shape"/>
<feGaussianBlur stdDeviation="5" result="effect1_foregroundBlur_94_749"/>
</filter>
<filter id="filter2_f_94_749" x="980" y="762" width="28" height="28" filterUnits="userSpaceOnUse" color-interpolation-filters="sRGB">
<feFlood flood-opacity="0" result="BackgroundImageFix"/>
<feBlend mode="normal" in="SourceGraphic" in2="BackgroundImageFix" result="shape"/>
<feGaussianBlur stdDeviation="5" result="effect1_foregroundBlur_94_749"/>
</filter>
<filter id="filter3_f_94_749" x="810" y="156" width="28" height="28" filterUnits="userSpaceOnUse" color-interpolation-filters="sRGB">
<feFlood flood-opacity="0" result="BackgroundImageFix"/>
<feBlend mode="normal" in="SourceGraphic" in2="BackgroundImageFix" result="shape"/>
<feGaussianBlur stdDeviation="5" result="effect1_foregroundBlur_94_749"/>
</filter>
<linearGradient id="paint0_linear_94_749" x1="1.87978" y1="0" x2="1.87978" y2="5.97623" gradientUnits="userSpaceOnUse">
<stop stop-color="white" stop-opacity="0.44"/>
<stop offset="1" stop-color="white" stop-opacity="0"/>
</linearGradient>
<linearGradient id="paint1_linear_94_749" x1="74.0175" y1="438.5" x2="-4.91768" y2="438.5" gradientUnits="userSpaceOnUse">
<stop stop-color="white" stop-opacity="0.38"/>
<stop offset="1" stop-opacity="0"/>
</linearGradient>
<linearGradient id="paint2_linear_94_749" x1="1.87978" y1="0" x2="1.87978" y2="5.97623" gradientUnits="userSpaceOnUse">
<stop stop-color="white" stop-opacity="0.44"/>
<stop offset="1" stop-color="white" stop-opacity="0"/>
</linearGradient>
<linearGradient id="paint3_linear_94_749" x1="548.018" y1="123.5" x2="469.082" y2="123.5" gradientUnits="userSpaceOnUse">
<stop stop-color="white" stop-opacity="0.38"/>
<stop offset="1" stop-opacity="0"/>
</linearGradient>
<clipPath id="clip0_94_749">
<rect width="1440" height="1024" fill="white"/>
</clipPath>
</defs>
</svg>
